<?xml version="1.0" encoding="utf-8" standalone="no"?>
<!DOCTYPE svg PUBLIC "-//W3C//DTD SVG 1.1//EN"
  "http://www.w3.org/Graphics/SVG/1.1/DTD/svg11.dtd">
<svg xmlns:xlink="http://www.w3.org/1999/xlink" width="864pt" height="576pt" viewBox="0 0 864 576" xmlns="http://www.w3.org/2000/svg" version="1.1">
 <metadata>
  <rdf:RDF xmlns:dc="http://purl.org/dc/elements/1.1/" xmlns:cc="http://creativecommons.org/ns#" xmlns:rdf="http://www.w3.org/1999/02/22-rdf-syntax-ns#">
   <cc:Work>
    <dc:type rdf:resource="http://purl.org/dc/dcmitype/StillImage"/>
    <dc:date>2025-02-05T10:19:51.785076</dc:date>
    <dc:format>image/svg+xml</dc:format>
    <dc:creator>
     <cc:Agent>
      <dc:title>Matplotlib v3.9.2, https://matplotlib.org/</dc:title>
     </cc:Agent>
    </dc:creator>
   </cc:Work>
  </rdf:RDF>
 </metadata>
 <defs>
  <style type="text/css">*{stroke-linejoin: round; stroke-linecap: butt}</style>
 </defs>
 <g id="figure_1">
  <g id="patch_1">
   <path d="M 0 576 
L 864 576 
L 864 0 
L 0 0 
z
" style="fill: #ffffff"/>
  </g>
  <g id="axes_1">
   <g id="patch_2">
    <path d="M 50.996158 525.846625 
L 853.2 525.846625 
L 853.2 10.8 
L 50.996158 10.8 
z
" style="fill: #eaeaf2"/>
   </g>
   <g id="matplotlib.axis_1">
    <g id="xtick_1">
     <g id="line2d_1">
      <path d="M 211.916226 525.846625 
L 211.916226 10.8 
" clip-path="url(#p5cda4aa371)" style="fill: none; stroke: #ffffff; stroke-width: 0.8; stroke-linecap: round"/>
     </g>
     <g id="text_1">
      <!-- $\mathdefault{10^{0}}$ -->
      <g style="fill: #262626" transform="translate(204.066226 543.159125) scale(0.1 -0.1)">
       <defs>
        <path id="ArialMT-31" d="M 2384 0 
L 1822 0 
L 1822 3584 
Q 1619 3391 1289 3197 
Q 959 3003 697 2906 
L 697 3450 
Q 1169 3672 1522 3987 
Q 1875 4303 2022 4600 
L 2384 4600 
L 2384 0 
z
" transform="scale(0.015625)"/>
        <path id="ArialMT-30" d="M 266 2259 
Q 266 3072 433 3567 
Q 600 4063 929 4331 
Q 1259 4600 1759 4600 
Q 2128 4600 2406 4451 
Q 2684 4303 2865 4023 
Q 3047 3744 3150 3342 
Q 3253 2941 3253 2259 
Q 3253 1453 3087 958 
Q 2922 463 2592 192 
Q 2263 -78 1759 -78 
Q 1097 -78 719 397 
Q 266 969 266 2259 
z
M 844 2259 
Q 844 1131 1108 757 
Q 1372 384 1759 384 
Q 2147 384 2411 759 
Q 2675 1134 2675 2259 
Q 2675 3391 2411 3762 
Q 2147 4134 1753 4134 
Q 1366 4134 1134 3806 
Q 844 3388 844 2259 
z
" transform="scale(0.015625)"/>
       </defs>
       <use xlink:href="#ArialMT-31" transform="translate(0 0.99375)"/>
       <use xlink:href="#ArialMT-30" transform="translate(55.615234 0.99375)"/>
       <use xlink:href="#ArialMT-30" transform="translate(112.972813 70.6875) scale(0.7)"/>
      </g>
     </g>
    </g>
    <g id="xtick_2">
     <g id="line2d_2">
      <path d="M 407.82625 525.846625 
L 407.82625 10.8 
" clip-path="url(#p5cda4aa371)" style="fill: none; stroke: #ffffff; stroke-width: 0.8; stroke-linecap: round"/>
     </g>
     <g id="text_2">
      <!-- $\mathdefault{10^{1}}$ -->
      <g style="fill: #262626" transform="translate(399.97625 543.159125) scale(0.1 -0.1)">
       <use xlink:href="#ArialMT-31" transform="translate(0 0.99375)"/>
       <use xlink:href="#ArialMT-30" transform="translate(55.615234 0.99375)"/>
       <use xlink:href="#ArialMT-31" transform="translate(112.972813 70.6875) scale(0.7)"/>
      </g>
     </g>
    </g>
    <g id="xtick_3">
     <g id="line2d_3">
      <path d="M 603.736273 525.846625 
L 603.736273 10.8 
" clip-path="url(#p5cda4aa371)" style="fill: none; stroke: #ffffff; stroke-width: 0.8; stroke-linecap: round"/>
     </g>
     <g id="text_3">
      <!-- $\mathdefault{10^{2}}$ -->
      <g style="fill: #262626" transform="translate(595.886273 543.159125) scale(0.1 -0.1)">
       <defs>
        <path id="ArialMT-32" d="M 3222 541 
L 3222 0 
L 194 0 
Q 188 203 259 391 
Q 375 700 629 1000 
Q 884 1300 1366 1694 
Q 2113 2306 2375 2664 
Q 2638 3022 2638 3341 
Q 2638 3675 2398 3904 
Q 2159 4134 1775 4134 
Q 1369 4134 1125 3890 
Q 881 3647 878 3216 
L 300 3275 
Q 359 3922 746 4261 
Q 1134 4600 1788 4600 
Q 2447 4600 2831 4234 
Q 3216 3869 3216 3328 
Q 3216 3053 3103 2787 
Q 2991 2522 2730 2228 
Q 2469 1934 1863 1422 
Q 1356 997 1212 845 
Q 1069 694 975 541 
L 3222 541 
z
" transform="scale(0.015625)"/>
       </defs>
       <use xlink:href="#ArialMT-31" transform="translate(0 0.99375)"/>
       <use xlink:href="#ArialMT-30" transform="translate(55.615234 0.99375)"/>
       <use xlink:href="#ArialMT-32" transform="translate(112.972813 70.6875) scale(0.7)"/>
      </g>
     </g>
    </g>
    <g id="xtick_4">
     <g id="line2d_4">
      <path d="M 799.646297 525.846625 
L 799.646297 10.8 
" clip-path="url(#p5cda4aa371)" style="fill: none; stroke: #ffffff; stroke-width: 0.8; stroke-linecap: round"/>
     </g>
     <g id="text_4">
      <!-- $\mathdefault{10^{3}}$ -->
      <g style="fill: #262626" transform="translate(791.796297 543.159125) scale(0.1 -0.1)">
       <defs>
        <path id="ArialMT-33" d="M 269 1209 
L 831 1284 
Q 928 806 1161 595 
Q 1394 384 1728 384 
Q 2125 384 2398 659 
Q 2672 934 2672 1341 
Q 2672 1728 2419 1979 
Q 2166 2231 1775 2231 
Q 1616 2231 1378 2169 
L 1441 2663 
Q 1497 2656 1531 2656 
Q 1891 2656 2178 2843 
Q 2466 3031 2466 3422 
Q 2466 3731 2256 3934 
Q 2047 4138 1716 4138 
Q 1388 4138 1169 3931 
Q 950 3725 888 3313 
L 325 3413 
Q 428 3978 793 4289 
Q 1159 4600 1703 4600 
Q 2078 4600 2393 4439 
Q 2709 4278 2876 4000 
Q 3044 3722 3044 3409 
Q 3044 3113 2884 2869 
Q 2725 2625 2413 2481 
Q 2819 2388 3044 2092 
Q 3269 1797 3269 1353 
Q 3269 753 2831 336 
Q 2394 -81 1725 -81 
Q 1122 -81 723 278 
Q 325 638 269 1209 
z
" transform="scale(0.015625)"/>
       </defs>
       <use xlink:href="#ArialMT-31" transform="translate(0 0.99375)"/>
       <use xlink:href="#ArialMT-30" transform="translate(55.615234 0.99375)"/>
       <use xlink:href="#ArialMT-33" transform="translate(112.972813 70.6875) scale(0.7)"/>
      </g>
     </g>
    </g>
    <g id="xtick_5"/>
    <g id="xtick_6"/>
    <g id="xtick_7"/>
    <g id="xtick_8"/>
    <g id="xtick_9"/>
    <g id="xtick_10"/>
    <g id="xtick_11"/>
    <g id="xtick_12"/>
    <g id="xtick_13"/>
    <g id="xtick_14"/>
    <g id="xtick_15"/>
    <g id="xtick_16"/>
    <g id="xtick_17"/>
    <g id="xtick_18"/>
    <g id="xtick_19"/>
    <g id="xtick_20"/>
    <g id="xtick_21"/>
    <g id="xtick_22"/>
    <g id="xtick_23"/>
    <g id="xtick_24"/>
    <g id="xtick_25"/>
    <g id="xtick_26"/>
    <g id="xtick_27"/>
    <g id="xtick_28"/>
    <g id="xtick_29"/>
    <g id="xtick_30"/>
    <g id="xtick_31"/>
    <g id="xtick_32"/>
    <g id="xtick_33"/>
    <g id="xtick_34"/>
    <g id="xtick_35"/>
    <g id="xtick_36"/>
    <g id="text_5">
     <!-- time -->
     <g style="fill: #262626" transform="translate(438.874642 559.167563) scale(0.14 -0.14)">
      <defs>
       <path id="ArialMT-74" d="M 1650 503 
L 1731 6 
Q 1494 -44 1306 -44 
Q 1000 -44 831 53 
Q 663 150 594 308 
Q 525 466 525 972 
L 525 2881 
L 113 2881 
L 113 3319 
L 525 3319 
L 525 4141 
L 1084 4478 
L 1084 3319 
L 1650 3319 
L 1650 2881 
L 1084 2881 
L 1084 941 
Q 1084 700 1114 631 
Q 1144 563 1211 522 
Q 1278 481 1403 481 
Q 1497 481 1650 503 
z
" transform="scale(0.015625)"/>
       <path id="ArialMT-69" d="M 425 3934 
L 425 4581 
L 988 4581 
L 988 3934 
L 425 3934 
z
M 425 0 
L 425 3319 
L 988 3319 
L 988 0 
L 425 0 
z
" transform="scale(0.015625)"/>
       <path id="ArialMT-6d" d="M 422 0 
L 422 3319 
L 925 3319 
L 925 2853 
Q 1081 3097 1340 3245 
Q 1600 3394 1931 3394 
Q 2300 3394 2536 3241 
Q 2772 3088 2869 2813 
Q 3263 3394 3894 3394 
Q 4388 3394 4653 3120 
Q 4919 2847 4919 2278 
L 4919 0 
L 4359 0 
L 4359 2091 
Q 4359 2428 4304 2576 
Q 4250 2725 4106 2815 
Q 3963 2906 3769 2906 
Q 3419 2906 3187 2673 
Q 2956 2441 2956 1928 
L 2956 0 
L 2394 0 
L 2394 2156 
Q 2394 2531 2256 2718 
Q 2119 2906 1806 2906 
Q 1569 2906 1367 2781 
Q 1166 2656 1075 2415 
Q 984 2175 984 1722 
L 984 0 
L 422 0 
z
" transform="scale(0.015625)"/>
       <path id="ArialMT-65" d="M 2694 1069 
L 3275 997 
Q 3138 488 2766 206 
Q 2394 -75 1816 -75 
Q 1088 -75 661 373 
Q 234 822 234 1631 
Q 234 2469 665 2931 
Q 1097 3394 1784 3394 
Q 2450 3394 2872 2941 
Q 3294 2488 3294 1666 
Q 3294 1616 3291 1516 
L 816 1516 
Q 847 969 1125 678 
Q 1403 388 1819 388 
Q 2128 388 2347 550 
Q 2566 713 2694 1069 
z
M 847 1978 
L 2700 1978 
Q 2663 2397 2488 2606 
Q 2219 2931 1791 2931 
Q 1403 2931 1139 2672 
Q 875 2413 847 1978 
z
" transform="scale(0.015625)"/>
      </defs>
      <use xlink:href="#ArialMT-74"/>
      <use xlink:href="#ArialMT-69" x="27.783203"/>
      <use xlink:href="#ArialMT-6d" x="50"/>
      <use xlink:href="#ArialMT-65" x="133.300781"/>
     </g>
    </g>
   </g>
   <g id="matplotlib.axis_2">
    <g id="ytick_1">
     <g id="line2d_5">
      <path d="M 50.996158 317.884279 
L 853.2 317.884279 
" clip-path="url(#p5cda4aa371)" style="fill: none; stroke: #ffffff; stroke-width: 0.8; stroke-linecap: round"/>
     </g>
     <g id="text_6">
      <!-- $\mathdefault{10^{0}}$ -->
      <g style="fill: #262626" transform="translate(28.296158 323.040529) scale(0.1 -0.1)">
       <use xlink:href="#ArialMT-31" transform="translate(0 0.99375)"/>
       <use xlink:href="#ArialMT-30" transform="translate(55.615234 0.99375)"/>
       <use xlink:href="#ArialMT-30" transform="translate(112.972813 70.6875) scale(0.7)"/>
      </g>
     </g>
    </g>
    <g id="ytick_2"/>
    <g id="ytick_3"/>
    <g id="ytick_4"/>
    <g id="ytick_5"/>
    <g id="ytick_6"/>
    <g id="ytick_7"/>
    <g id="ytick_8"/>
    <g id="ytick_9"/>
    <g id="ytick_10"/>
    <g id="ytick_11"/>
    <g id="ytick_12"/>
    <g id="ytick_13"/>
    <g id="ytick_14"/>
    <g id="text_7">
     <!-- max quality -->
     <g style="fill: #262626" transform="translate(21.349596 303.724719) rotate(-90) scale(0.14 -0.14)">
      <defs>
       <path id="ArialMT-61" d="M 2588 409 
Q 2275 144 1986 34 
Q 1697 -75 1366 -75 
Q 819 -75 525 192 
Q 231 459 231 875 
Q 231 1119 342 1320 
Q 453 1522 633 1644 
Q 813 1766 1038 1828 
Q 1203 1872 1538 1913 
Q 2219 1994 2541 2106 
Q 2544 2222 2544 2253 
Q 2544 2597 2384 2738 
Q 2169 2928 1744 2928 
Q 1347 2928 1158 2789 
Q 969 2650 878 2297 
L 328 2372 
Q 403 2725 575 2942 
Q 747 3159 1072 3276 
Q 1397 3394 1825 3394 
Q 2250 3394 2515 3294 
Q 2781 3194 2906 3042 
Q 3031 2891 3081 2659 
Q 3109 2516 3109 2141 
L 3109 1391 
Q 3109 606 3145 398 
Q 3181 191 3288 0 
L 2700 0 
Q 2613 175 2588 409 
z
M 2541 1666 
Q 2234 1541 1622 1453 
Q 1275 1403 1131 1340 
Q 988 1278 909 1158 
Q 831 1038 831 891 
Q 831 666 1001 516 
Q 1172 366 1500 366 
Q 1825 366 2078 508 
Q 2331 650 2450 897 
Q 2541 1088 2541 1459 
L 2541 1666 
z
" transform="scale(0.015625)"/>
       <path id="ArialMT-78" d="M 47 0 
L 1259 1725 
L 138 3319 
L 841 3319 
L 1350 2541 
Q 1494 2319 1581 2169 
Q 1719 2375 1834 2534 
L 2394 3319 
L 3066 3319 
L 1919 1756 
L 3153 0 
L 2463 0 
L 1781 1031 
L 1600 1309 
L 728 0 
L 47 0 
z
" transform="scale(0.015625)"/>
       <path id="ArialMT-20" transform="scale(0.015625)"/>
       <path id="ArialMT-71" d="M 2538 -1272 
L 2538 353 
Q 2406 169 2170 47 
Q 1934 -75 1669 -75 
Q 1078 -75 651 397 
Q 225 869 225 1691 
Q 225 2191 398 2587 
Q 572 2984 901 3189 
Q 1231 3394 1625 3394 
Q 2241 3394 2594 2875 
L 2594 3319 
L 3100 3319 
L 3100 -1272 
L 2538 -1272 
z
M 803 1669 
Q 803 1028 1072 708 
Q 1341 388 1716 388 
Q 2075 388 2334 692 
Q 2594 997 2594 1619 
Q 2594 2281 2320 2615 
Q 2047 2950 1678 2950 
Q 1313 2950 1058 2639 
Q 803 2328 803 1669 
z
" transform="scale(0.015625)"/>
       <path id="ArialMT-75" d="M 2597 0 
L 2597 488 
Q 2209 -75 1544 -75 
Q 1250 -75 995 37 
Q 741 150 617 320 
Q 494 491 444 738 
Q 409 903 409 1263 
L 409 3319 
L 972 3319 
L 972 1478 
Q 972 1038 1006 884 
Q 1059 663 1231 536 
Q 1403 409 1656 409 
Q 1909 409 2131 539 
Q 2353 669 2445 892 
Q 2538 1116 2538 1541 
L 2538 3319 
L 3100 3319 
L 3100 0 
L 2597 0 
z
" transform="scale(0.015625)"/>
       <path id="ArialMT-6c" d="M 409 0 
L 409 4581 
L 972 4581 
L 972 0 
L 409 0 
z
" transform="scale(0.015625)"/>
       <path id="ArialMT-79" d="M 397 -1278 
L 334 -750 
Q 519 -800 656 -800 
Q 844 -800 956 -737 
Q 1069 -675 1141 -563 
Q 1194 -478 1313 -144 
Q 1328 -97 1363 -6 
L 103 3319 
L 709 3319 
L 1400 1397 
Q 1534 1031 1641 628 
Q 1738 1016 1872 1384 
L 2581 3319 
L 3144 3319 
L 1881 -56 
Q 1678 -603 1566 -809 
Q 1416 -1088 1222 -1217 
Q 1028 -1347 759 -1347 
Q 597 -1347 397 -1278 
z
" transform="scale(0.015625)"/>
      </defs>
      <use xlink:href="#ArialMT-6d"/>
      <use xlink:href="#ArialMT-61" x="83.300781"/>
      <use xlink:href="#ArialMT-78" x="138.916016"/>
      <use xlink:href="#ArialMT-20" x="188.916016"/>
      <use xlink:href="#ArialMT-71" x="216.699219"/>
      <use xlink:href="#ArialMT-75" x="272.314453"/>
      <use xlink:href="#ArialMT-61" x="327.929688"/>
      <use xlink:href="#ArialMT-6c" x="383.544922"/>
      <use xlink:href="#ArialMT-69" x="405.761719"/>
      <use xlink:href="#ArialMT-74" x="427.978516"/>
      <use xlink:href="#ArialMT-79" x="455.761719"/>
     </g>
    </g>
   </g>
   <g id="PathCollection_1">
    <defs>
     <path id="m3bc48fb2fd" d="M 0 5 
C 1.326016 5 2.597899 4.473168 3.535534 3.535534 
C 4.473168 2.597899 5 1.326016 5 0 
C 5 -1.326016 4.473168 -2.597899 3.535534 -3.535534 
C 2.597899 -4.473168 1.326016 -5 0 -5 
C -1.326016 -5 -2.597899 -4.473168 -3.535534 -3.535534 
C -4.473168 -2.597899 -5 -1.326016 -5 0 
C -5 1.326016 -4.473168 2.597899 -3.535534 3.535534 
C -2.597899 4.473168 -1.326016 5 0 5 
z
" style="stroke: #1f77b4"/>
    </defs>
    <g clip-path="url(#p5cda4aa371)">
     <use xlink:href="#m3bc48fb2fd" x="319.71564" y="152.921072" style="fill: #1f77b4; stroke: #1f77b4"/>
    </g>
   </g>
   <g id="PathCollection_2">
    <defs>
     <path id="md8f0822145" d="M -5 5 
L 5 -5 
M -5 -5 
L 5 5 
" style="stroke: #1f77b4; stroke-width: 1.5"/>
    </defs>
    <g clip-path="url(#p5cda4aa371)">
     <use xlink:href="#md8f0822145" x="416.170953" y="152.921072" style="fill: #1f77b4; stroke: #1f77b4; stroke-width: 1.5"/>
    </g>
   </g>
   <g id="PathCollection_3">
    <defs>
     <path id="m407f7c9664" d="M 0 -5 
L -5 5 
L 5 5 
z
" style="stroke: #1f77b4"/>
    </defs>
    <g clip-path="url(#p5cda4aa371)">
     <use xlink:href="#m407f7c9664" x="319.737385" y="152.921072" style="fill: #1f77b4; stroke: #1f77b4"/>
    </g>
   </g>
   <g id="PathCollection_4">
    <defs>
     <path id="m07b0894e68" d="M 0 5 
C 1.326016 5 2.597899 4.473168 3.535534 3.535534 
C 4.473168 2.597899 5 1.326016 5 0 
C 5 -1.326016 4.473168 -2.597899 3.535534 -3.535534 
C 2.597899 -4.473168 1.326016 -5 0 -5 
C -1.326016 -5 -2.597899 -4.473168 -3.535534 -3.535534 
C -4.473168 -2.597899 -5 -1.326016 -5 0 
C -5 1.326016 -4.473168 2.597899 -3.535534 3.535534 
C -2.597899 4.473168 -1.326016 5 0 5 
z
" style="stroke: #aec7e8"/>
    </defs>
    <g clip-path="url(#p5cda4aa371)">
     <use xlink:href="#m07b0894e68" x="307.458286" y="163.781697" style="fill: #aec7e8; stroke: #aec7e8"/>
    </g>
   </g>
   <g id="PathCollection_5">
    <defs>
     <path id="m1bbaa58433" d="M -5 5 
L 5 -5 
M -5 -5 
L 5 5 
" style="stroke: #aec7e8; stroke-width: 1.5"/>
    </defs>
    <g clip-path="url(#p5cda4aa371)">
     <use xlink:href="#m1bbaa58433" x="324.87325" y="163.781697" style="fill: #aec7e8; stroke: #aec7e8; stroke-width: 1.5"/>
    </g>
   </g>
   <g id="PathCollection_6">
    <defs>
     <path id="mf6a5d18e3b" d="M 0 -5 
L -5 5 
L 5 5 
z
" style="stroke: #aec7e8"/>
    </defs>
    <g clip-path="url(#p5cda4aa371)">
     <use xlink:href="#mf6a5d18e3b" x="307.458352" y="163.781697" style="fill: #aec7e8; stroke: #aec7e8"/>
    </g>
   </g>
   <g id="PathCollection_7">
    <defs>
     <path id="m8ccd29ba0c" d="M 0 5 
C 1.326016 5 2.597899 4.473168 3.535534 3.535534 
C 4.473168 2.597899 5 1.326016 5 0 
C 5 -1.326016 4.473168 -2.597899 3.535534 -3.535534 
C 2.597899 -4.473168 1.326016 -5 0 -5 
C -1.326016 -5 -2.597899 -4.473168 -3.535534 -3.535534 
C -4.473168 -2.597899 -5 -1.326016 -5 0 
C -5 1.326016 -4.473168 2.597899 -3.535534 3.535534 
C -2.597899 4.473168 -1.326016 5 0 5 
z
" style="stroke: #ff7f0e"/>
    </defs>
    <g clip-path="url(#p5cda4aa371)">
     <use xlink:href="#m8ccd29ba0c" x="317.184555" y="223.532315" style="fill: #ff7f0e; stroke: #ff7f0e"/>
    </g>
   </g>
   <g id="PathCollection_8">
    <defs>
     <path id="m8d9568bcfd" d="M -5 5 
L 5 -5 
M -5 -5 
L 5 5 
" style="stroke: #ff7f0e; stroke-width: 1.5"/>
    </defs>
    <g clip-path="url(#p5cda4aa371)">
     <use xlink:href="#m8d9568bcfd" x="386.175852" y="223.532315" style="fill: #ff7f0e; stroke: #ff7f0e; stroke-width: 1.5"/>
    </g>
   </g>
   <g id="PathCollection_9">
    <defs>
     <path id="meabc6d2e38" d="M 0 -5 
L -5 5 
L 5 5 
z
" style="stroke: #ff7f0e"/>
    </defs>
    <g clip-path="url(#p5cda4aa371)">
     <use xlink:href="#meabc6d2e38" x="317.197687" y="225.846308" style="fill: #ff7f0e; stroke: #ff7f0e"/>
    </g>
   </g>
   <g id="PathCollection_10">
    <defs>
     <path id="m7d83789498" d="M 0 5 
C 1.326016 5 2.597899 4.473168 3.535534 3.535534 
C 4.473168 2.597899 5 1.326016 5 0 
C 5 -1.326016 4.473168 -2.597899 3.535534 -3.535534 
C 2.597899 -4.473168 1.326016 -5 0 -5 
C -1.326016 -5 -2.597899 -4.473168 -3.535534 -3.535534 
C -4.473168 -2.597899 -5 -1.326016 -5 0 
C -5 1.326016 -4.473168 2.597899 -3.535534 3.535534 
C -2.597899 4.473168 -1.326016 5 0 5 
z
" style="stroke: #ffbb78"/>
    </defs>
    <g clip-path="url(#p5cda4aa371)">
     <use xlink:href="#m7d83789498" x="348.349655" y="86.518664" style="fill: #ffbb78; stroke: #ffbb78"/>
    </g>
   </g>
   <g id="PathCollection_11">
    <defs>
     <path id="m826ecde425" d="M -5 5 
L 5 -5 
M -5 -5 
L 5 5 
" style="stroke: #ffbb78; stroke-width: 1.5"/>
    </defs>
    <g clip-path="url(#p5cda4aa371)">
     <use xlink:href="#m826ecde425" x="404.091429" y="86.518664" style="fill: #ffbb78; stroke: #ffbb78; stroke-width: 1.5"/>
    </g>
   </g>
   <g id="PathCollection_12">
    <defs>
     <path id="mcff24f777c" d="M 0 -5 
L -5 5 
L 5 5 
z
" style="stroke: #ffbb78"/>
    </defs>
    <g clip-path="url(#p5cda4aa371)">
     <use xlink:href="#mcff24f777c" x="348.349953" y="86.518664" style="fill: #ffbb78; stroke: #ffbb78"/>
    </g>
   </g>
   <g id="PathCollection_13">
    <defs>
     <path id="mf267024280" d="M 0 5 
C 1.326016 5 2.597899 4.473168 3.535534 3.535534 
C 4.473168 2.597899 5 1.326016 5 0 
C 5 -1.326016 4.473168 -2.597899 3.535534 -3.535534 
C 2.597899 -4.473168 1.326016 -5 0 -5 
C -1.326016 -5 -2.597899 -4.473168 -3.535534 -3.535534 
C -4.473168 -2.597899 -5 -1.326016 -5 0 
C -5 1.326016 -4.473168 2.597899 -3.535534 3.535534 
C -2.597899 4.473168 -1.326016 5 0 5 
z
" style="stroke: #2ca02c"/>
    </defs>
    <g clip-path="url(#p5cda4aa371)">
     <use xlink:href="#mf267024280" x="314.08269" y="274.733904" style="fill: #2ca02c; stroke: #2ca02c"/>
    </g>
   </g>
   <g id="PathCollection_14">
    <defs>
     <path id="m841494687d" d="M -5 5 
L 5 -5 
M -5 -5 
L 5 5 
" style="stroke: #2ca02c; stroke-width: 1.5"/>
    </defs>
    <g clip-path="url(#p5cda4aa371)">
     <use xlink:href="#m841494687d" x="393.446054" y="267.124406" style="fill: #2ca02c; stroke: #2ca02c; stroke-width: 1.5"/>
    </g>
   </g>
   <g id="PathCollection_15">
    <defs>
     <path id="mfb5a11fef1" d="M 0 -5 
L -5 5 
L 5 5 
z
" style="stroke: #2ca02c"/>
    </defs>
    <g clip-path="url(#p5cda4aa371)">
     <use xlink:href="#mfb5a11fef1" x="314.085614" y="267.124406" style="fill: #2ca02c; stroke: #2ca02c"/>
    </g>
   </g>
   <g id="PathCollection_16">
    <defs>
     <path id="m365a7570e7" d="M 0 5 
C 1.326016 5 2.597899 4.473168 3.535534 3.535534 
C 4.473168 2.597899 5 1.326016 5 0 
C 5 -1.326016 4.473168 -2.597899 3.535534 -3.535534 
C 2.597899 -4.473168 1.326016 -5 0 -5 
C -1.326016 -5 -2.597899 -4.473168 -3.535534 -3.535534 
C -4.473168 -2.597899 -5 -1.326016 -5 0 
C -5 1.326016 -4.473168 2.597899 -3.535534 3.535534 
C -2.597899 4.473168 -1.326016 5 0 5 
z
" style="stroke: #98df8a"/>
    </defs>
    <g clip-path="url(#p5cda4aa371)">
     <use xlink:href="#m365a7570e7" x="246.239189" y="204.572235" style="fill: #98df8a; stroke: #98df8a"/>
    </g>
   </g>
   <g id="PathCollection_17">
    <defs>
     <path id="mea264c8dd7" d="M -5 5 
L 5 -5 
M -5 -5 
L 5 5 
" style="stroke: #98df8a; stroke-width: 1.5"/>
    </defs>
    <g clip-path="url(#p5cda4aa371)">
     <use xlink:href="#mea264c8dd7" x="345.057473" y="204.572235" style="fill: #98df8a; stroke: #98df8a; stroke-width: 1.5"/>
    </g>
   </g>
   <g id="PathCollection_18">
    <defs>
     <path id="m9bd833571b" d="M 0 -5 
L -5 5 
L 5 5 
z
" style="stroke: #98df8a"/>
    </defs>
    <g clip-path="url(#p5cda4aa371)">
     <use xlink:href="#m9bd833571b" x="246.277761" y="226.27862" style="fill: #98df8a; stroke: #98df8a"/>
    </g>
   </g>
   <g id="PathCollection_19">
    <defs>
     <path id="m58e7aeea88" d="M 0 5 
C 1.326016 5 2.597899 4.473168 3.535534 3.535534 
C 4.473168 2.597899 5 1.326016 5 0 
C 5 -1.326016 4.473168 -2.597899 3.535534 -3.535534 
C 2.597899 -4.473168 1.326016 -5 0 -5 
C -1.326016 -5 -2.597899 -4.473168 -3.535534 -3.535534 
C -4.473168 -2.597899 -5 -1.326016 -5 0 
C -5 1.326016 -4.473168 2.597899 -3.535534 3.535534 
C -2.597899 4.473168 -1.326016 5 0 5 
z
" style="stroke: #ff9896"/>
    </defs>
    <g clip-path="url(#p5cda4aa371)">
     <use xlink:href="#m58e7aeea88" x="357.77685" y="119.862741" style="fill: #ff9896; stroke: #ff9896"/>
    </g>
   </g>
   <g id="PathCollection_20">
    <defs>
     <path id="m5f74096904" d="M -5 5 
L 5 -5 
M -5 -5 
L 5 5 
" style="stroke: #ff9896; stroke-width: 1.5"/>
    </defs>
    <g clip-path="url(#p5cda4aa371)">
     <use xlink:href="#m5f74096904" x="302.442312" y="119.862741" style="fill: #ff9896; stroke: #ff9896; stroke-width: 1.5"/>
    </g>
   </g>
   <g id="PathCollection_21">
    <defs>
     <path id="mb096affc62" d="M 0 -5 
L -5 5 
L 5 5 
z
" style="stroke: #ff9896"/>
    </defs>
    <g clip-path="url(#p5cda4aa371)">
     <use xlink:href="#mb096affc62" x="357.786044" y="119.862741" style="fill: #ff9896; stroke: #ff9896"/>
    </g>
   </g>
   <g id="PathCollection_22">
    <defs>
     <path id="m3061f386bb" d="M 0 5 
C 1.326016 5 2.597899 4.473168 3.535534 3.535534 
C 4.473168 2.597899 5 1.326016 5 0 
C 5 -1.326016 4.473168 -2.597899 3.535534 -3.535534 
C 2.597899 -4.473168 1.326016 -5 0 -5 
C -1.326016 -5 -2.597899 -4.473168 -3.535534 -3.535534 
C -4.473168 -2.597899 -5 -1.326016 -5 0 
C -5 1.326016 -4.473168 2.597899 -3.535534 3.535534 
C -2.597899 4.473168 -1.326016 5 0 5 
z
" style="stroke: #9467bd"/>
    </defs>
    <g clip-path="url(#p5cda4aa371)">
     <use xlink:href="#m3061f386bb" x="287.54792" y="240.122831" style="fill: #9467bd; stroke: #9467bd"/>
    </g>
   </g>
   <g id="PathCollection_23">
    <defs>
     <path id="m1f444dd249" d="M -5 5 
L 5 -5 
M -5 -5 
L 5 5 
" style="stroke: #9467bd; stroke-width: 1.5"/>
    </defs>
    <g clip-path="url(#p5cda4aa371)">
     <use xlink:href="#m1f444dd249" x="340.853727" y="240.122831" style="fill: #9467bd; stroke: #9467bd; stroke-width: 1.5"/>
    </g>
   </g>
   <g id="PathCollection_24">
    <defs>
     <path id="m084ce5338f" d="M 0 -5 
L -5 5 
L 5 5 
z
" style="stroke: #9467bd"/>
    </defs>
    <g clip-path="url(#p5cda4aa371)">
     <use xlink:href="#m084ce5338f" x="287.56303" y="241.453247" style="fill: #9467bd; stroke: #9467bd"/>
    </g>
   </g>
   <g id="PathCollection_25">
    <defs>
     <path id="me4f0c6b46d" d="M 0 5 
C 1.326016 5 2.597899 4.473168 3.535534 3.535534 
C 4.473168 2.597899 5 1.326016 5 0 
C 5 -1.326016 4.473168 -2.597899 3.535534 -3.535534 
C 2.597899 -4.473168 1.326016 -5 0 -5 
C -1.326016 -5 -2.597899 -4.473168 -3.535534 -3.535534 
C -4.473168 -2.597899 -5 -1.326016 -5 0 
C -5 1.326016 -4.473168 2.597899 -3.535534 3.535534 
C -2.597899 4.473168 -1.326016 5 0 5 
z
" style="stroke: #c5b0d5"/>
    </defs>
    <g clip-path="url(#p5cda4aa371)">
     <use xlink:href="#me4f0c6b46d" x="418.248947" y="420.699455" style="fill: #c5b0d5; stroke: #c5b0d5"/>
    </g>
   </g>
   <g id="PathCollection_26">
    <defs>
     <path id="mfe32389fe6" d="M -5 5 
L 5 -5 
M -5 -5 
L 5 5 
" style="stroke: #c5b0d5; stroke-width: 1.5"/>
    </defs>
    <g clip-path="url(#p5cda4aa371)">
     <use xlink:href="#mfe32389fe6" x="472.177986" y="373.471533" style="fill: #c5b0d5; stroke: #c5b0d5; stroke-width: 1.5"/>
    </g>
   </g>
   <g id="PathCollection_27">
    <defs>
     <path id="me3f9d461b1" d="M 0 -5 
L -5 5 
L 5 5 
z
" style="stroke: #c5b0d5"/>
    </defs>
    <g clip-path="url(#p5cda4aa371)">
     <use xlink:href="#me3f9d461b1" x="418.529758" y="377.075121" style="fill: #c5b0d5; stroke: #c5b0d5"/>
    </g>
   </g>
   <g id="PathCollection_28">
    <defs>
     <path id="m6245856240" d="M 0 5 
C 1.326016 5 2.597899 4.473168 3.535534 3.535534 
C 4.473168 2.597899 5 1.326016 5 0 
C 5 -1.326016 4.473168 -2.597899 3.535534 -3.535534 
C 2.597899 -4.473168 1.326016 -5 0 -5 
C -1.326016 -5 -2.597899 -4.473168 -3.535534 -3.535534 
C -4.473168 -2.597899 -5 -1.326016 -5 0 
C -5 1.326016 -4.473168 2.597899 -3.535534 3.535534 
C -2.597899 4.473168 -1.326016 5 0 5 
z
" style="stroke: #8c564b"/>
    </defs>
    <g clip-path="url(#p5cda4aa371)">
     <use xlink:href="#m6245856240" x="87.459969" y="359.022909" style="fill: #8c564b; stroke: #8c564b"/>
    </g>
   </g>
   <g id="PathCollection_29">
    <defs>
     <path id="m77bdc73f97" d="M -5 5 
L 5 -5 
M -5 -5 
L 5 5 
" style="stroke: #8c564b; stroke-width: 1.5"/>
    </defs>
    <g clip-path="url(#p5cda4aa371)">
     <use xlink:href="#m77bdc73f97" x="238.344879" y="359.022909" style="fill: #8c564b; stroke: #8c564b; stroke-width: 1.5"/>
    </g>
   </g>
   <g id="PathCollection_30">
    <defs>
     <path id="m469b34a3fa" d="M 0 -5 
L -5 5 
L 5 5 
z
" style="stroke: #8c564b"/>
    </defs>
    <g clip-path="url(#p5cda4aa371)">
     <use xlink:href="#m469b34a3fa" x="88.663485" y="359.022909" style="fill: #8c564b; stroke: #8c564b"/>
    </g>
   </g>
   <g id="PathCollection_31">
    <defs>
     <path id="m312d2cbce5" d="M 0 5 
C 1.326016 5 2.597899 4.473168 3.535534 3.535534 
C 4.473168 2.597899 5 1.326016 5 0 
C 5 -1.326016 4.473168 -2.597899 3.535534 -3.535534 
C 2.597899 -4.473168 1.326016 -5 0 -5 
C -1.326016 -5 -2.597899 -4.473168 -3.535534 -3.535534 
C -4.473168 -2.597899 -5 -1.326016 -5 0 
C -5 1.326016 -4.473168 2.597899 -3.535534 3.535534 
C -2.597899 4.473168 -1.326016 5 0 5 
z
" style="stroke: #c49c94"/>
    </defs>
    <g clip-path="url(#p5cda4aa371)">
     <use xlink:href="#m312d2cbce5" x="535.221919" y="392.637004" style="fill: #c49c94; stroke: #c49c94"/>
    </g>
   </g>
   <g id="PathCollection_32">
    <defs>
     <path id="m61f98e84ef" d="M -5 5 
L 5 -5 
M -5 -5 
L 5 5 
" style="stroke: #c49c94; stroke-width: 1.5"/>
    </defs>
    <g clip-path="url(#p5cda4aa371)">
     <use xlink:href="#m61f98e84ef" x="571.435995" y="329.361978" style="fill: #c49c94; stroke: #c49c94; stroke-width: 1.5"/>
    </g>
   </g>
   <g id="PathCollection_33">
    <defs>
     <path id="m9bd4cd9bb6" d="M 0 -5 
L -5 5 
L 5 5 
z
" style="stroke: #c49c94"/>
    </defs>
    <g clip-path="url(#p5cda4aa371)">
     <use xlink:href="#m9bd4cd9bb6" x="535.294416" y="369.514658" style="fill: #c49c94; stroke: #c49c94"/>
    </g>
   </g>
   <g id="PathCollection_34">
    <defs>
     <path id="m7e2373a398" d="M 0 5 
C 1.326016 5 2.597899 4.473168 3.535534 3.535534 
C 4.473168 2.597899 5 1.326016 5 0 
C 5 -1.326016 4.473168 -2.597899 3.535534 -3.535534 
C 2.597899 -4.473168 1.326016 -5 0 -5 
C -1.326016 -5 -2.597899 -4.473168 -3.535534 -3.535534 
C -4.473168 -2.597899 -5 -1.326016 -5 0 
C -5 1.326016 -4.473168 2.597899 -3.535534 3.535534 
C -2.597899 4.473168 -1.326016 5 0 5 
z
" style="stroke: #e377c2"/>
    </defs>
    <g clip-path="url(#p5cda4aa371)">
     <use xlink:href="#m7e2373a398" x="599.677315" y="70.42717" style="fill: #e377c2; stroke: #e377c2"/>
    </g>
   </g>
   <g id="PathCollection_35">
    <defs>
     <path id="md403cf0c6c" d="M -5 5 
L 5 -5 
M -5 -5 
L 5 5 
" style="stroke: #e377c2; stroke-width: 1.5"/>
    </defs>
    <g clip-path="url(#p5cda4aa371)">
     <use xlink:href="#md403cf0c6c" x="597.204029" y="34.21121" style="fill: #e377c2; stroke: #e377c2; stroke-width: 1.5"/>
    </g>
   </g>
   <g id="PathCollection_36">
    <defs>
     <path id="md93d740bef" d="M 0 -5 
L -5 5 
L 5 5 
z
" style="stroke: #e377c2"/>
    </defs>
    <g clip-path="url(#p5cda4aa371)">
     <use xlink:href="#md93d740bef" x="599.677504" y="81.309336" style="fill: #e377c2; stroke: #e377c2"/>
    </g>
   </g>
   <g id="PathCollection_37">
    <defs>
     <path id="m0e76ba6686" d="M 0 5 
C 1.326016 5 2.597899 4.473168 3.535534 3.535534 
C 4.473168 2.597899 5 1.326016 5 0 
C 5 -1.326016 4.473168 -2.597899 3.535534 -3.535534 
C 2.597899 -4.473168 1.326016 -5 0 -5 
C -1.326016 -5 -2.597899 -4.473168 -3.535534 -3.535534 
C -4.473168 -2.597899 -5 -1.326016 -5 0 
C -5 1.326016 -4.473168 2.597899 -3.535534 3.535534 
C -2.597899 4.473168 -1.326016 5 0 5 
z
" style="stroke: #7f7f7f"/>
    </defs>
    <g clip-path="url(#p5cda4aa371)">
     <use xlink:href="#m0e76ba6686" x="529.192662" y="481.943387" style="fill: #7f7f7f; stroke: #7f7f7f"/>
    </g>
   </g>
   <g id="PathCollection_38">
    <defs>
     <path id="m8104b258d6" d="M -5 5 
L 5 -5 
M -5 -5 
L 5 5 
" style="stroke: #7f7f7f; stroke-width: 1.5"/>
    </defs>
    <g clip-path="url(#p5cda4aa371)">
     <use xlink:href="#m8104b258d6" x="411.55508" y="453.454442" style="fill: #7f7f7f; stroke: #7f7f7f; stroke-width: 1.5"/>
    </g>
   </g>
   <g id="PathCollection_39">
    <defs>
     <path id="m797d1c83fa" d="M 0 -5 
L -5 5 
L 5 5 
z
" style="stroke: #7f7f7f"/>
    </defs>
    <g clip-path="url(#p5cda4aa371)">
     <use xlink:href="#m797d1c83fa" x="529.207414" y="457.219078" style="fill: #7f7f7f; stroke: #7f7f7f"/>
    </g>
   </g>
   <g id="PathCollection_40">
    <defs>
     <path id="m944aabced1" d="M 0 5 
C 1.326016 5 2.597899 4.473168 3.535534 3.535534 
C 4.473168 2.597899 5 1.326016 5 0 
C 5 -1.326016 4.473168 -2.597899 3.535534 -3.535534 
C 2.597899 -4.473168 1.326016 -5 0 -5 
C -1.326016 -5 -2.597899 -4.473168 -3.535534 -3.535534 
C -4.473168 -2.597899 -5 -1.326016 -5 0 
C -5 1.326016 -4.473168 2.597899 -3.535534 3.535534 
C -2.597899 4.473168 -1.326016 5 0 5 
z
" style="stroke: #c7c7c7"/>
    </defs>
    <g clip-path="url(#p5cda4aa371)">
     <use xlink:href="#m944aabced1" x="527.790752" y="502.435415" style="fill: #c7c7c7; stroke: #c7c7c7"/>
    </g>
   </g>
   <g id="PathCollection_41">
    <defs>
     <path id="m8abaa51b8c" d="M -5 5 
L 5 -5 
M -5 -5 
L 5 5 
" style="stroke: #c7c7c7; stroke-width: 1.5"/>
    </defs>
    <g clip-path="url(#p5cda4aa371)">
     <use xlink:href="#m8abaa51b8c" x="413.519175" y="481.497474" style="fill: #c7c7c7; stroke: #c7c7c7; stroke-width: 1.5"/>
    </g>
   </g>
   <g id="PathCollection_42">
    <defs>
     <path id="m9ce2f538e0" d="M 0 -5 
L -5 5 
L 5 5 
z
" style="stroke: #c7c7c7"/>
    </defs>
    <g clip-path="url(#p5cda4aa371)">
     <use xlink:href="#m9ce2f538e0" x="527.795199" y="495.463394" style="fill: #c7c7c7; stroke: #c7c7c7"/>
    </g>
   </g>
   <g id="PathCollection_43">
    <defs>
     <path id="m7e347400c5" d="M 0 5 
C 1.326016 5 2.597899 4.473168 3.535534 3.535534 
C 4.473168 2.597899 5 1.326016 5 0 
C 5 -1.326016 4.473168 -2.597899 3.535534 -3.535534 
C 2.597899 -4.473168 1.326016 -5 0 -5 
C -1.326016 -5 -2.597899 -4.473168 -3.535534 -3.535534 
C -4.473168 -2.597899 -5 -1.326016 -5 0 
C -5 1.326016 -4.473168 2.597899 -3.535534 3.535534 
C -2.597899 4.473168 -1.326016 5 0 5 
z
" style="stroke: #bcbd22"/>
    </defs>
    <g clip-path="url(#p5cda4aa371)">
     <use xlink:href="#m7e347400c5" x="478.787729" y="324.246329" style="fill: #bcbd22; stroke: #bcbd22"/>
    </g>
   </g>
   <g id="PathCollection_44">
    <defs>
     <path id="md4fe4eab94" d="M -5 5 
L 5 -5 
M -5 -5 
L 5 5 
" style="stroke: #bcbd22; stroke-width: 1.5"/>
    </defs>
    <g clip-path="url(#p5cda4aa371)">
     <use xlink:href="#md4fe4eab94" x="499.910891" y="323.114052" style="fill: #bcbd22; stroke: #bcbd22; stroke-width: 1.5"/>
    </g>
   </g>
   <g id="PathCollection_45">
    <defs>
     <path id="m132b8acc91" d="M 0 -5 
L -5 5 
L 5 5 
z
" style="stroke: #bcbd22"/>
    </defs>
    <g clip-path="url(#p5cda4aa371)">
     <use xlink:href="#m132b8acc91" x="478.790997" y="324.734112" style="fill: #bcbd22; stroke: #bcbd22"/>
    </g>
   </g>
   <g id="PathCollection_46">
    <defs>
     <path id="m3473c90eba" d="M 0 5 
C 1.326016 5 2.597899 4.473168 3.535534 3.535534 
C 4.473168 2.597899 5 1.326016 5 0 
C 5 -1.326016 4.473168 -2.597899 3.535534 -3.535534 
C 2.597899 -4.473168 1.326016 -5 0 -5 
C -1.326016 -5 -2.597899 -4.473168 -3.535534 -3.535534 
C -4.473168 -2.597899 -5 -1.326016 -5 0 
C -5 1.326016 -4.473168 2.597899 -3.535534 3.535534 
C -2.597899 4.473168 -1.326016 5 0 5 
z
" style="stroke: #dbdb8d"/>
    </defs>
    <g clip-path="url(#p5cda4aa371)">
     <use xlink:href="#m3473c90eba" x="816.736137" y="287.662034" style="fill: #dbdb8d; stroke: #dbdb8d"/>
    </g>
   </g>
   <g id="PathCollection_47">
    <defs>
     <path id="m0f9e12ef26" d="M -5 5 
L 5 -5 
M -5 -5 
L 5 5 
" style="stroke: #dbdb8d; stroke-width: 1.5"/>
    </defs>
    <g clip-path="url(#p5cda4aa371)">
     <use xlink:href="#m0f9e12ef26" x="624.654338" y="287.662034" style="fill: #dbdb8d; stroke: #dbdb8d; stroke-width: 1.5"/>
    </g>
   </g>
   <g id="PathCollection_48">
    <defs>
     <path id="m6568a87837" d="M 0 -5 
L -5 5 
L 5 5 
z
" style="stroke: #dbdb8d"/>
    </defs>
    <g clip-path="url(#p5cda4aa371)">
     <use xlink:href="#m6568a87837" x="816.736189" y="291.825172" style="fill: #dbdb8d; stroke: #dbdb8d"/>
    </g>
   </g>
   <g id="PathCollection_49">
    <defs>
     <path id="m7e1dcf1424" d="M 0 5 
C 1.326016 5 2.597899 4.473168 3.535534 3.535534 
C 4.473168 2.597899 5 1.326016 5 0 
C 5 -1.326016 4.473168 -2.597899 3.535534 -3.535534 
C 2.597899 -4.473168 1.326016 -5 0 -5 
C -1.326016 -5 -2.597899 -4.473168 -3.535534 -3.535534 
C -4.473168 -2.597899 -5 -1.326016 -5 0 
C -5 1.326016 -4.473168 2.597899 -3.535534 3.535534 
C -2.597899 4.473168 -1.326016 5 0 5 
z
" style="stroke: #17becf"/>
    </defs>
    <g clip-path="url(#p5cda4aa371)">
     <use xlink:href="#m7e1dcf1424" x="185.3031" y="351.88356" style="fill: #17becf; stroke: #17becf"/>
    </g>
   </g>
   <g id="PathCollection_50">
    <defs>
     <path id="mdc9fc42071" d="M -5 5 
L 5 -5 
M -5 -5 
L 5 5 
" style="stroke: #17becf; stroke-width: 1.5"/>
    </defs>
    <g clip-path="url(#p5cda4aa371)">
     <use xlink:href="#mdc9fc42071" x="323.756229" y="296.238165" style="fill: #17becf; stroke: #17becf; stroke-width: 1.5"/>
    </g>
   </g>
   <g id="PathCollection_51">
    <defs>
     <path id="me98a81bbdb" d="M 0 -5 
L -5 5 
L 5 5 
z
" style="stroke: #17becf"/>
    </defs>
    <g clip-path="url(#p5cda4aa371)">
     <use xlink:href="#me98a81bbdb" x="187.769593" y="312.824318" style="fill: #17becf; stroke: #17becf"/>
    </g>
   </g>
   <g id="PathCollection_52">
    <defs>
     <path id="m199fc7b4ac" d="M 0 5 
C 1.326016 5 2.597899 4.473168 3.535534 3.535534 
C 4.473168 2.597899 5 1.326016 5 0 
C 5 -1.326016 4.473168 -2.597899 3.535534 -3.535534 
C 2.597899 -4.473168 1.326016 -5 0 -5 
C -1.326016 -5 -2.597899 -4.473168 -3.535534 -3.535534 
C -4.473168 -2.597899 -5 -1.326016 -5 0 
C -5 1.326016 -4.473168 2.597899 -3.535534 3.535534 
C -2.597899 4.473168 -1.326016 5 0 5 
z
" style="stroke: #9edae5"/>
    </defs>
    <g clip-path="url(#p5cda4aa371)">
     <use xlink:href="#m199fc7b4ac" x="341.288373" y="340.486325" style="fill: #9edae5; stroke: #9edae5"/>
    </g>
   </g>
   <g id="PathCollection_53">
    <defs>
     <path id="mc9823cb904" d="M -5 5 
L 5 -5 
M -5 -5 
L 5 5 
" style="stroke: #9edae5; stroke-width: 1.5"/>
    </defs>
    <g clip-path="url(#p5cda4aa371)">
     <use xlink:href="#mc9823cb904" x="349.65238" y="340.486325" style="fill: #9edae5; stroke: #9edae5; stroke-width: 1.5"/>
    </g>
   </g>
   <g id="PathCollection_54">
    <defs>
     <path id="m8b6c8046c7" d="M 0 -5 
L -5 5 
L 5 5 
z
" style="stroke: #9edae5"/>
    </defs>
    <g clip-path="url(#p5cda4aa371)">
     <use xlink:href="#m8b6c8046c7" x="341.900084" y="340.847092" style="fill: #9edae5; stroke: #9edae5"/>
    </g>
   </g>
   <g id="line2d_6">
    <path d="M 319.71564 152.921072 
L 416.170953 152.921072 
L 319.737385 152.921072 
" clip-path="url(#p5cda4aa371)" style="fill: none; stroke: #1f77b4; stroke-opacity: 0.6; stroke-linecap: round"/>
   </g>
   <g id="line2d_7">
    <path d="M 307.458286 163.781697 
L 324.87325 163.781697 
L 307.458352 163.781697 
" clip-path="url(#p5cda4aa371)" style="fill: none; stroke: #aec7e8; stroke-opacity: 0.6; stroke-linecap: round"/>
   </g>
   <g id="line2d_8">
    <path d="M 317.184555 223.532315 
L 386.175852 223.532315 
L 317.197687 225.846308 
" clip-path="url(#p5cda4aa371)" style="fill: none; stroke: #ff7f0e; stroke-opacity: 0.6; stroke-linecap: round"/>
   </g>
   <g id="line2d_9">
    <path d="M 348.349655 86.518664 
L 404.091429 86.518664 
L 348.349953 86.518664 
" clip-path="url(#p5cda4aa371)" style="fill: none; stroke: #ffbb78; stroke-opacity: 0.6; stroke-linecap: round"/>
   </g>
   <g id="line2d_10">
    <path d="M 314.08269 274.733904 
L 393.446054 267.124406 
L 314.085614 267.124406 
" clip-path="url(#p5cda4aa371)" style="fill: none; stroke: #2ca02c; stroke-opacity: 0.6; stroke-linecap: round"/>
   </g>
   <g id="line2d_11">
    <path d="M 246.239189 204.572235 
L 345.057473 204.572235 
L 246.277761 226.27862 
" clip-path="url(#p5cda4aa371)" style="fill: none; stroke: #98df8a; stroke-opacity: 0.6; stroke-linecap: round"/>
   </g>
   <g id="line2d_12">
    <path d="M 357.77685 119.862741 
L 302.442312 119.862741 
L 357.786044 119.862741 
" clip-path="url(#p5cda4aa371)" style="fill: none; stroke: #ff9896; stroke-opacity: 0.6; stroke-linecap: round"/>
   </g>
   <g id="line2d_13">
    <path d="M 287.54792 240.122831 
L 340.853727 240.122831 
L 287.56303 241.453247 
" clip-path="url(#p5cda4aa371)" style="fill: none; stroke: #9467bd; stroke-opacity: 0.6; stroke-linecap: round"/>
   </g>
   <g id="line2d_14">
    <path d="M 418.248947 420.699455 
L 472.177986 373.471533 
L 418.529758 377.075121 
" clip-path="url(#p5cda4aa371)" style="fill: none; stroke: #c5b0d5; stroke-opacity: 0.6; stroke-linecap: round"/>
   </g>
   <g id="line2d_15">
    <path d="M 87.459969 359.022909 
L 238.344879 359.022909 
L 88.663485 359.022909 
" clip-path="url(#p5cda4aa371)" style="fill: none; stroke: #8c564b; stroke-opacity: 0.6; stroke-linecap: round"/>
   </g>
   <g id="line2d_16">
    <path d="M 535.221919 392.637004 
L 571.435995 329.361978 
L 535.294416 369.514658 
" clip-path="url(#p5cda4aa371)" style="fill: none; stroke: #c49c94; stroke-opacity: 0.6; stroke-linecap: round"/>
   </g>
   <g id="line2d_17">
    <path d="M 599.677315 70.42717 
L 597.204029 34.21121 
L 599.677504 81.309336 
" clip-path="url(#p5cda4aa371)" style="fill: none; stroke: #e377c2; stroke-opacity: 0.6; stroke-linecap: round"/>
   </g>
   <g id="line2d_18">
    <path d="M 529.192662 481.943387 
L 411.55508 453.454442 
L 529.207414 457.219078 
" clip-path="url(#p5cda4aa371)" style="fill: none; stroke: #7f7f7f; stroke-opacity: 0.6; stroke-linecap: round"/>
   </g>
   <g id="line2d_19">
    <path d="M 527.790752 502.435415 
L 413.519175 481.497474 
L 527.795199 495.463394 
" clip-path="url(#p5cda4aa371)" style="fill: none; stroke: #c7c7c7; stroke-opacity: 0.6; stroke-linecap: round"/>
   </g>
   <g id="line2d_20">
    <path d="M 478.787729 324.246329 
L 499.910891 323.114052 
L 478.790997 324.734112 
" clip-path="url(#p5cda4aa371)" style="fill: none; stroke: #bcbd22; stroke-opacity: 0.6; stroke-linecap: round"/>
   </g>
   <g id="line2d_21">
    <path d="M 816.736137 287.662034 
L 624.654338 287.662034 
L 816.736189 291.825172 
" clip-path="url(#p5cda4aa371)" style="fill: none; stroke: #dbdb8d; stroke-opacity: 0.6; stroke-linecap: round"/>
   </g>
   <g id="line2d_22">
    <path d="M 185.3031 351.88356 
L 323.756229 296.238165 
L 187.769593 312.824318 
" clip-path="url(#p5cda4aa371)" style="fill: none; stroke: #17becf; stroke-opacity: 0.6; stroke-linecap: round"/>
   </g>
   <g id="line2d_23">
    <path d="M 341.288373 340.486325 
L 349.65238 340.486325 
L 341.900084 340.847092 
" clip-path="url(#p5cda4aa371)" style="fill: none; stroke: #9edae5; stroke-opacity: 0.6; stroke-linecap: round"/>
   </g>
   <g id="patch_3">
    <path d="M 50.996158 525.846625 
L 50.996158 10.8 
" style="fill: none; stroke: #ffffff; stroke-width: 0.8; stroke-linejoin: miter; stroke-linecap: square"/>
   </g>
   <g id="patch_4">
    <path d="M 853.2 525.846625 
L 853.2 10.8 
" style="fill: none; stroke: #ffffff; stroke-width: 0.8; stroke-linejoin: miter; stroke-linecap: square"/>
   </g>
   <g id="patch_5">
    <path d="M 50.996158 525.846625 
L 853.2 525.846625 
" style="fill: none; stroke: #ffffff; stroke-width: 0.8; stroke-linejoin: miter; stroke-linecap: square"/>
   </g>
   <g id="patch_6">
    <path d="M 50.996158 10.8 
L 853.2 10.8 
" style="fill: none; stroke: #ffffff; stroke-width: 0.8; stroke-linejoin: miter; stroke-linecap: square"/>
   </g>
   <g id="legend_1">
    <g id="patch_7">
     <path d="M 678.616875 120.516563 
L 849 120.516563 
Q 850.2 120.516563 850.2 119.316563 
L 850.2 15 
Q 850.2 13.8 849 13.8 
L 678.616875 13.8 
Q 677.416875 13.8 677.416875 15 
L 677.416875 119.316563 
Q 677.416875 120.516563 678.616875 120.516563 
z
" style="fill: #eaeaf2; opacity: 0.8; stroke: #cccccc; stroke-linejoin: miter"/>
    </g>
    <g id="text_8">
     <!-- Legend -->
     <g style="fill: #262626" transform="translate(750.462188 21.92625) scale(0.08 -0.08)">
      <defs>
       <path id="ArialMT-4c" d="M 469 0 
L 469 4581 
L 1075 4581 
L 1075 541 
L 3331 541 
L 3331 0 
L 469 0 
z
" transform="scale(0.015625)"/>
       <path id="ArialMT-67" d="M 319 -275 
L 866 -356 
Q 900 -609 1056 -725 
Q 1266 -881 1628 -881 
Q 2019 -881 2231 -725 
Q 2444 -569 2519 -288 
Q 2563 -116 2559 434 
Q 2191 0 1641 0 
Q 956 0 581 494 
Q 206 988 206 1678 
Q 206 2153 378 2554 
Q 550 2956 876 3175 
Q 1203 3394 1644 3394 
Q 2231 3394 2613 2919 
L 2613 3319 
L 3131 3319 
L 3131 450 
Q 3131 -325 2973 -648 
Q 2816 -972 2473 -1159 
Q 2131 -1347 1631 -1347 
Q 1038 -1347 672 -1080 
Q 306 -813 319 -275 
z
M 784 1719 
Q 784 1066 1043 766 
Q 1303 466 1694 466 
Q 2081 466 2343 764 
Q 2606 1063 2606 1700 
Q 2606 2309 2336 2618 
Q 2066 2928 1684 2928 
Q 1309 2928 1046 2623 
Q 784 2319 784 1719 
z
" transform="scale(0.015625)"/>
       <path id="ArialMT-6e" d="M 422 0 
L 422 3319 
L 928 3319 
L 928 2847 
Q 1294 3394 1984 3394 
Q 2284 3394 2536 3286 
Q 2788 3178 2913 3003 
Q 3038 2828 3088 2588 
Q 3119 2431 3119 2041 
L 3119 0 
L 2556 0 
L 2556 2019 
Q 2556 2363 2490 2533 
Q 2425 2703 2258 2804 
Q 2091 2906 1866 2906 
Q 1506 2906 1245 2678 
Q 984 2450 984 1813 
L 984 0 
L 422 0 
z
" transform="scale(0.015625)"/>
       <path id="ArialMT-64" d="M 2575 0 
L 2575 419 
Q 2259 -75 1647 -75 
Q 1250 -75 917 144 
Q 584 363 401 755 
Q 219 1147 219 1656 
Q 219 2153 384 2558 
Q 550 2963 881 3178 
Q 1213 3394 1622 3394 
Q 1922 3394 2156 3267 
Q 2391 3141 2538 2938 
L 2538 4581 
L 3097 4581 
L 3097 0 
L 2575 0 
z
M 797 1656 
Q 797 1019 1065 703 
Q 1334 388 1700 388 
Q 2069 388 2326 689 
Q 2584 991 2584 1609 
Q 2584 2291 2321 2609 
Q 2059 2928 1675 2928 
Q 1300 2928 1048 2622 
Q 797 2316 797 1656 
z
" transform="scale(0.015625)"/>
      </defs>
      <use xlink:href="#ArialMT-4c"/>
      <use xlink:href="#ArialMT-65" x="55.615234"/>
      <use xlink:href="#ArialMT-67" x="111.230469"/>
      <use xlink:href="#ArialMT-65" x="166.845703"/>
      <use xlink:href="#ArialMT-6e" x="222.460938"/>
      <use xlink:href="#ArialMT-64" x="278.076172"/>
     </g>
    </g>
    <g id="line2d_24">
     <path d="M 679.816875 28.877813 
L 685.816875 28.877813 
L 691.816875 28.877813 
" style="fill: none; stroke: #1f77b4; stroke-opacity: 0.6; stroke-linecap: round"/>
    </g>
    <g id="text_9">
     <!-- Australia (line) -->
     <g style="fill: #262626" transform="translate(696.616875 30.977813) scale(0.06 -0.06)">
      <defs>
       <path id="ArialMT-41" d="M -9 0 
L 1750 4581 
L 2403 4581 
L 4278 0 
L 3588 0 
L 3053 1388 
L 1138 1388 
L 634 0 
L -9 0 
z
M 1313 1881 
L 2866 1881 
L 2388 3150 
Q 2169 3728 2063 4100 
Q 1975 3659 1816 3225 
L 1313 1881 
z
" transform="scale(0.015625)"/>
       <path id="ArialMT-73" d="M 197 991 
L 753 1078 
Q 800 744 1014 566 
Q 1228 388 1613 388 
Q 2000 388 2187 545 
Q 2375 703 2375 916 
Q 2375 1106 2209 1216 
Q 2094 1291 1634 1406 
Q 1016 1563 777 1677 
Q 538 1791 414 1992 
Q 291 2194 291 2438 
Q 291 2659 392 2848 
Q 494 3038 669 3163 
Q 800 3259 1026 3326 
Q 1253 3394 1513 3394 
Q 1903 3394 2198 3281 
Q 2494 3169 2634 2976 
Q 2775 2784 2828 2463 
L 2278 2388 
Q 2241 2644 2061 2787 
Q 1881 2931 1553 2931 
Q 1166 2931 1000 2803 
Q 834 2675 834 2503 
Q 834 2394 903 2306 
Q 972 2216 1119 2156 
Q 1203 2125 1616 2013 
Q 2213 1853 2448 1751 
Q 2684 1650 2818 1456 
Q 2953 1263 2953 975 
Q 2953 694 2789 445 
Q 2625 197 2315 61 
Q 2006 -75 1616 -75 
Q 969 -75 630 194 
Q 291 463 197 991 
z
" transform="scale(0.015625)"/>
       <path id="ArialMT-72" d="M 416 0 
L 416 3319 
L 922 3319 
L 922 2816 
Q 1116 3169 1280 3281 
Q 1444 3394 1641 3394 
Q 1925 3394 2219 3213 
L 2025 2691 
Q 1819 2813 1613 2813 
Q 1428 2813 1281 2702 
Q 1134 2591 1072 2394 
Q 978 2094 978 1738 
L 978 0 
L 416 0 
z
" transform="scale(0.015625)"/>
       <path id="ArialMT-28" d="M 1497 -1347 
Q 1031 -759 709 28 
Q 388 816 388 1659 
Q 388 2403 628 3084 
Q 909 3875 1497 4659 
L 1900 4659 
Q 1522 4009 1400 3731 
Q 1209 3300 1100 2831 
Q 966 2247 966 1656 
Q 966 153 1900 -1347 
L 1497 -1347 
z
" transform="scale(0.015625)"/>
       <path id="ArialMT-29" d="M 791 -1347 
L 388 -1347 
Q 1322 153 1322 1656 
Q 1322 2244 1188 2822 
Q 1081 3291 891 3722 
Q 769 4003 388 4659 
L 791 4659 
Q 1378 3875 1659 3084 
Q 1900 2403 1900 1659 
Q 1900 816 1576 28 
Q 1253 -759 791 -1347 
z
" transform="scale(0.015625)"/>
      </defs>
      <use xlink:href="#ArialMT-41"/>
      <use xlink:href="#ArialMT-75" x="66.699219"/>
      <use xlink:href="#ArialMT-73" x="122.314453"/>
      <use xlink:href="#ArialMT-74" x="172.314453"/>
      <use xlink:href="#ArialMT-72" x="200.097656"/>
      <use xlink:href="#ArialMT-61" x="233.398438"/>
      <use xlink:href="#ArialMT-6c" x="289.013672"/>
      <use xlink:href="#ArialMT-69" x="311.230469"/>
      <use xlink:href="#ArialMT-61" x="333.447266"/>
      <use xlink:href="#ArialMT-20" x="389.0625"/>
      <use xlink:href="#ArialMT-28" x="416.845703"/>
      <use xlink:href="#ArialMT-6c" x="450.146484"/>
      <use xlink:href="#ArialMT-69" x="472.363281"/>
      <use xlink:href="#ArialMT-6e" x="494.580078"/>
      <use xlink:href="#ArialMT-65" x="550.195312"/>
      <use xlink:href="#ArialMT-29" x="605.810547"/>
     </g>
    </g>
    <g id="PathCollection_55">
     <g>
      <use xlink:href="#m3bc48fb2fd" x="685.816875" y="37.960313" style="fill: #1f77b4; stroke: #1f77b4"/>
     </g>
    </g>
    <g id="text_10">
     <!-- Australia-BUSPaS -->
     <g style="fill: #262626" transform="translate(696.616875 39.535313) scale(0.06 -0.06)">
      <defs>
       <path id="ArialMT-2d" d="M 203 1375 
L 203 1941 
L 1931 1941 
L 1931 1375 
L 203 1375 
z
" transform="scale(0.015625)"/>
       <path id="ArialMT-42" d="M 469 0 
L 469 4581 
L 2188 4581 
Q 2713 4581 3030 4442 
Q 3347 4303 3526 4014 
Q 3706 3725 3706 3409 
Q 3706 3116 3547 2856 
Q 3388 2597 3066 2438 
Q 3481 2316 3704 2022 
Q 3928 1728 3928 1328 
Q 3928 1006 3792 729 
Q 3656 453 3456 303 
Q 3256 153 2954 76 
Q 2653 0 2216 0 
L 469 0 
z
M 1075 2656 
L 2066 2656 
Q 2469 2656 2644 2709 
Q 2875 2778 2992 2937 
Q 3109 3097 3109 3338 
Q 3109 3566 3000 3739 
Q 2891 3913 2687 3977 
Q 2484 4041 1991 4041 
L 1075 4041 
L 1075 2656 
z
M 1075 541 
L 2216 541 
Q 2509 541 2628 563 
Q 2838 600 2978 687 
Q 3119 775 3209 942 
Q 3300 1109 3300 1328 
Q 3300 1584 3169 1773 
Q 3038 1963 2805 2039 
Q 2572 2116 2134 2116 
L 1075 2116 
L 1075 541 
z
" transform="scale(0.015625)"/>
       <path id="ArialMT-55" d="M 3500 4581 
L 4106 4581 
L 4106 1934 
Q 4106 1244 3950 837 
Q 3794 431 3386 176 
Q 2978 -78 2316 -78 
Q 1672 -78 1262 144 
Q 853 366 678 786 
Q 503 1206 503 1934 
L 503 4581 
L 1109 4581 
L 1109 1938 
Q 1109 1341 1220 1058 
Q 1331 775 1601 622 
Q 1872 469 2263 469 
Q 2931 469 3215 772 
Q 3500 1075 3500 1938 
L 3500 4581 
z
" transform="scale(0.015625)"/>
       <path id="ArialMT-53" d="M 288 1472 
L 859 1522 
Q 900 1178 1048 958 
Q 1197 738 1509 602 
Q 1822 466 2213 466 
Q 2559 466 2825 569 
Q 3091 672 3220 851 
Q 3350 1031 3350 1244 
Q 3350 1459 3225 1620 
Q 3100 1781 2813 1891 
Q 2628 1963 1997 2114 
Q 1366 2266 1113 2400 
Q 784 2572 623 2826 
Q 463 3081 463 3397 
Q 463 3744 659 4045 
Q 856 4347 1234 4503 
Q 1613 4659 2075 4659 
Q 2584 4659 2973 4495 
Q 3363 4331 3572 4012 
Q 3781 3694 3797 3291 
L 3216 3247 
Q 3169 3681 2898 3903 
Q 2628 4125 2100 4125 
Q 1550 4125 1298 3923 
Q 1047 3722 1047 3438 
Q 1047 3191 1225 3031 
Q 1400 2872 2139 2705 
Q 2878 2538 3153 2413 
Q 3553 2228 3743 1945 
Q 3934 1663 3934 1294 
Q 3934 928 3725 604 
Q 3516 281 3123 101 
Q 2731 -78 2241 -78 
Q 1619 -78 1198 103 
Q 778 284 539 648 
Q 300 1013 288 1472 
z
" transform="scale(0.015625)"/>
       <path id="ArialMT-50" d="M 494 0 
L 494 4581 
L 2222 4581 
Q 2678 4581 2919 4538 
Q 3256 4481 3484 4323 
Q 3713 4166 3852 3881 
Q 3991 3597 3991 3256 
Q 3991 2672 3619 2267 
Q 3247 1863 2275 1863 
L 1100 1863 
L 1100 0 
L 494 0 
z
M 1100 2403 
L 2284 2403 
Q 2872 2403 3119 2622 
Q 3366 2841 3366 3238 
Q 3366 3525 3220 3729 
Q 3075 3934 2838 4000 
Q 2684 4041 2272 4041 
L 1100 4041 
L 1100 2403 
z
" transform="scale(0.015625)"/>
      </defs>
      <use xlink:href="#ArialMT-41"/>
      <use xlink:href="#ArialMT-75" x="66.699219"/>
      <use xlink:href="#ArialMT-73" x="122.314453"/>
      <use xlink:href="#ArialMT-74" x="172.314453"/>
      <use xlink:href="#ArialMT-72" x="200.097656"/>
      <use xlink:href="#ArialMT-61" x="233.398438"/>
      <use xlink:href="#ArialMT-6c" x="289.013672"/>
      <use xlink:href="#ArialMT-69" x="311.230469"/>
      <use xlink:href="#ArialMT-61" x="333.447266"/>
      <use xlink:href="#ArialMT-2d" x="389.0625"/>
      <use xlink:href="#ArialMT-42" x="422.363281"/>
      <use xlink:href="#ArialMT-55" x="489.0625"/>
      <use xlink:href="#ArialMT-53" x="561.279297"/>
      <use xlink:href="#ArialMT-50" x="627.978516"/>
      <use xlink:href="#ArialMT-61" x="694.677734"/>
      <use xlink:href="#ArialMT-53" x="750.292969"/>
     </g>
    </g>
    <g id="PathCollection_56">
     <g>
      <use xlink:href="#md8f0822145" x="685.816875" y="46.4475" style="fill: #1f77b4; stroke: #1f77b4; stroke-width: 1.5"/>
     </g>
    </g>
    <g id="text_11">
     <!-- Australia-Beam Search -->
     <g style="fill: #262626" transform="translate(696.616875 48.0225) scale(0.06 -0.06)">
      <defs>
       <path id="ArialMT-63" d="M 2588 1216 
L 3141 1144 
Q 3050 572 2676 248 
Q 2303 -75 1759 -75 
Q 1078 -75 664 370 
Q 250 816 250 1647 
Q 250 2184 428 2587 
Q 606 2991 970 3192 
Q 1334 3394 1763 3394 
Q 2303 3394 2647 3120 
Q 2991 2847 3088 2344 
L 2541 2259 
Q 2463 2594 2264 2762 
Q 2066 2931 1784 2931 
Q 1359 2931 1093 2626 
Q 828 2322 828 1663 
Q 828 994 1084 691 
Q 1341 388 1753 388 
Q 2084 388 2306 591 
Q 2528 794 2588 1216 
z
" transform="scale(0.015625)"/>
       <path id="ArialMT-68" d="M 422 0 
L 422 4581 
L 984 4581 
L 984 2938 
Q 1378 3394 1978 3394 
Q 2347 3394 2619 3248 
Q 2891 3103 3008 2847 
Q 3125 2591 3125 2103 
L 3125 0 
L 2563 0 
L 2563 2103 
Q 2563 2525 2380 2717 
Q 2197 2909 1863 2909 
Q 1613 2909 1392 2779 
Q 1172 2650 1078 2428 
Q 984 2206 984 1816 
L 984 0 
L 422 0 
z
" transform="scale(0.015625)"/>
      </defs>
      <use xlink:href="#ArialMT-41"/>
      <use xlink:href="#ArialMT-75" x="66.699219"/>
      <use xlink:href="#ArialMT-73" x="122.314453"/>
      <use xlink:href="#ArialMT-74" x="172.314453"/>
      <use xlink:href="#ArialMT-72" x="200.097656"/>
      <use xlink:href="#ArialMT-61" x="233.398438"/>
      <use xlink:href="#ArialMT-6c" x="289.013672"/>
      <use xlink:href="#ArialMT-69" x="311.230469"/>
      <use xlink:href="#ArialMT-61" x="333.447266"/>
      <use xlink:href="#ArialMT-2d" x="389.0625"/>
      <use xlink:href="#ArialMT-42" x="422.363281"/>
      <use xlink:href="#ArialMT-65" x="489.0625"/>
      <use xlink:href="#ArialMT-61" x="544.677734"/>
      <use xlink:href="#ArialMT-6d" x="600.292969"/>
      <use xlink:href="#ArialMT-20" x="683.59375"/>
      <use xlink:href="#ArialMT-53" x="711.376953"/>
      <use xlink:href="#ArialMT-65" x="778.076172"/>
      <use xlink:href="#ArialMT-61" x="833.691406"/>
      <use xlink:href="#ArialMT-72" x="889.306641"/>
      <use xlink:href="#ArialMT-63" x="922.607422"/>
      <use xlink:href="#ArialMT-68" x="972.607422"/>
     </g>
    </g>
    <g id="PathCollection_57">
     <g>
      <use xlink:href="#m407f7c9664" x="685.816875" y="54.934688" style="fill: #1f77b4; stroke: #1f77b4"/>
     </g>
    </g>
    <g id="text_12">
     <!-- Australia-MCTS4DM -->
     <g style="fill: #262626" transform="translate(696.616875 56.509688) scale(0.06 -0.06)">
      <defs>
       <path id="ArialMT-4d" d="M 475 0 
L 475 4581 
L 1388 4581 
L 2472 1338 
Q 2622 884 2691 659 
Q 2769 909 2934 1394 
L 4031 4581 
L 4847 4581 
L 4847 0 
L 4263 0 
L 4263 3834 
L 2931 0 
L 2384 0 
L 1059 3900 
L 1059 0 
L 475 0 
z
" transform="scale(0.015625)"/>
       <path id="ArialMT-43" d="M 3763 1606 
L 4369 1453 
Q 4178 706 3683 314 
Q 3188 -78 2472 -78 
Q 1731 -78 1267 223 
Q 803 525 561 1097 
Q 319 1669 319 2325 
Q 319 3041 592 3573 
Q 866 4106 1370 4382 
Q 1875 4659 2481 4659 
Q 3169 4659 3637 4309 
Q 4106 3959 4291 3325 
L 3694 3184 
Q 3534 3684 3231 3912 
Q 2928 4141 2469 4141 
Q 1941 4141 1586 3887 
Q 1231 3634 1087 3207 
Q 944 2781 944 2328 
Q 944 1744 1114 1308 
Q 1284 872 1643 656 
Q 2003 441 2422 441 
Q 2931 441 3284 734 
Q 3638 1028 3763 1606 
z
" transform="scale(0.015625)"/>
       <path id="ArialMT-54" d="M 1659 0 
L 1659 4041 
L 150 4041 
L 150 4581 
L 3781 4581 
L 3781 4041 
L 2266 4041 
L 2266 0 
L 1659 0 
z
" transform="scale(0.015625)"/>
       <path id="ArialMT-34" d="M 2069 0 
L 2069 1097 
L 81 1097 
L 81 1613 
L 2172 4581 
L 2631 4581 
L 2631 1613 
L 3250 1613 
L 3250 1097 
L 2631 1097 
L 2631 0 
L 2069 0 
z
M 2069 1613 
L 2069 3678 
L 634 1613 
L 2069 1613 
z
" transform="scale(0.015625)"/>
       <path id="ArialMT-44" d="M 494 0 
L 494 4581 
L 2072 4581 
Q 2606 4581 2888 4516 
Q 3281 4425 3559 4188 
Q 3922 3881 4101 3404 
Q 4281 2928 4281 2316 
Q 4281 1794 4159 1391 
Q 4038 988 3847 723 
Q 3656 459 3429 307 
Q 3203 156 2883 78 
Q 2563 0 2147 0 
L 494 0 
z
M 1100 541 
L 2078 541 
Q 2531 541 2789 625 
Q 3047 709 3200 863 
Q 3416 1078 3536 1442 
Q 3656 1806 3656 2325 
Q 3656 3044 3420 3430 
Q 3184 3816 2847 3947 
Q 2603 4041 2063 4041 
L 1100 4041 
L 1100 541 
z
" transform="scale(0.015625)"/>
      </defs>
      <use xlink:href="#ArialMT-41"/>
      <use xlink:href="#ArialMT-75" x="66.699219"/>
      <use xlink:href="#ArialMT-73" x="122.314453"/>
      <use xlink:href="#ArialMT-74" x="172.314453"/>
      <use xlink:href="#ArialMT-72" x="200.097656"/>
      <use xlink:href="#ArialMT-61" x="233.398438"/>
      <use xlink:href="#ArialMT-6c" x="289.013672"/>
      <use xlink:href="#ArialMT-69" x="311.230469"/>
      <use xlink:href="#ArialMT-61" x="333.447266"/>
      <use xlink:href="#ArialMT-2d" x="389.0625"/>
      <use xlink:href="#ArialMT-4d" x="422.363281"/>
      <use xlink:href="#ArialMT-43" x="505.664062"/>
      <use xlink:href="#ArialMT-54" x="577.880859"/>
      <use xlink:href="#ArialMT-53" x="638.964844"/>
      <use xlink:href="#ArialMT-34" x="705.664062"/>
      <use xlink:href="#ArialMT-44" x="761.279297"/>
      <use xlink:href="#ArialMT-4d" x="833.496094"/>
     </g>
    </g>
    <g id="line2d_25">
     <path d="M 679.816875 62.97 
L 685.816875 62.97 
L 691.816875 62.97 
" style="fill: none; stroke: #aec7e8; stroke-opacity: 0.6; stroke-linecap: round"/>
    </g>
    <g id="text_13">
     <!-- Brazil (line) -->
     <g style="fill: #262626" transform="translate(696.616875 65.07) scale(0.06 -0.06)">
      <defs>
       <path id="ArialMT-7a" d="M 125 0 
L 125 456 
L 2238 2881 
Q 1878 2863 1603 2863 
L 250 2863 
L 250 3319 
L 2963 3319 
L 2963 2947 
L 1166 841 
L 819 456 
Q 1197 484 1528 484 
L 3063 484 
L 3063 0 
L 125 0 
z
" transform="scale(0.015625)"/>
      </defs>
      <use xlink:href="#ArialMT-42"/>
      <use xlink:href="#ArialMT-72" x="66.699219"/>
      <use xlink:href="#ArialMT-61" x="100"/>
      <use xlink:href="#ArialMT-7a" x="155.615234"/>
      <use xlink:href="#ArialMT-69" x="205.615234"/>
      <use xlink:href="#ArialMT-6c" x="227.832031"/>
      <use xlink:href="#ArialMT-20" x="250.048828"/>
      <use xlink:href="#ArialMT-28" x="277.832031"/>
      <use xlink:href="#ArialMT-6c" x="311.132812"/>
      <use xlink:href="#ArialMT-69" x="333.349609"/>
      <use xlink:href="#ArialMT-6e" x="355.566406"/>
      <use xlink:href="#ArialMT-65" x="411.181641"/>
      <use xlink:href="#ArialMT-29" x="466.796875"/>
     </g>
    </g>
    <g id="line2d_26">
     <path d="M 679.816875 71.600625 
L 685.816875 71.600625 
L 691.816875 71.600625 
" style="fill: none; stroke: #ff7f0e; stroke-opacity: 0.6; stroke-linecap: round"/>
    </g>
    <g id="text_14">
     <!-- France (line) -->
     <g style="fill: #262626" transform="translate(696.616875 73.700625) scale(0.06 -0.06)">
      <defs>
       <path id="ArialMT-46" d="M 525 0 
L 525 4581 
L 3616 4581 
L 3616 4041 
L 1131 4041 
L 1131 2622 
L 3281 2622 
L 3281 2081 
L 1131 2081 
L 1131 0 
L 525 0 
z
" transform="scale(0.015625)"/>
      </defs>
      <use xlink:href="#ArialMT-46"/>
      <use xlink:href="#ArialMT-72" x="61.083984"/>
      <use xlink:href="#ArialMT-61" x="94.384766"/>
      <use xlink:href="#ArialMT-6e" x="150"/>
      <use xlink:href="#ArialMT-63" x="205.615234"/>
      <use xlink:href="#ArialMT-65" x="255.615234"/>
      <use xlink:href="#ArialMT-20" x="311.230469"/>
      <use xlink:href="#ArialMT-28" x="339.013672"/>
      <use xlink:href="#ArialMT-6c" x="372.314453"/>
      <use xlink:href="#ArialMT-69" x="394.53125"/>
      <use xlink:href="#ArialMT-6e" x="416.748047"/>
      <use xlink:href="#ArialMT-65" x="472.363281"/>
      <use xlink:href="#ArialMT-29" x="527.978516"/>
     </g>
    </g>
    <g id="line2d_27">
     <path d="M 679.816875 80.23125 
L 685.816875 80.23125 
L 691.816875 80.23125 
" style="fill: none; stroke: #ffbb78; stroke-opacity: 0.6; stroke-linecap: round"/>
    </g>
    <g id="text_15">
     <!-- Germany (line) -->
     <g style="fill: #262626" transform="translate(696.616875 82.33125) scale(0.06 -0.06)">
      <defs>
       <path id="ArialMT-47" d="M 2638 1797 
L 2638 2334 
L 4578 2338 
L 4578 638 
Q 4131 281 3656 101 
Q 3181 -78 2681 -78 
Q 2006 -78 1454 211 
Q 903 500 622 1047 
Q 341 1594 341 2269 
Q 341 2938 620 3517 
Q 900 4097 1425 4378 
Q 1950 4659 2634 4659 
Q 3131 4659 3532 4498 
Q 3934 4338 4162 4050 
Q 4391 3763 4509 3300 
L 3963 3150 
Q 3859 3500 3706 3700 
Q 3553 3900 3268 4020 
Q 2984 4141 2638 4141 
Q 2222 4141 1919 4014 
Q 1616 3888 1430 3681 
Q 1244 3475 1141 3228 
Q 966 2803 966 2306 
Q 966 1694 1177 1281 
Q 1388 869 1791 669 
Q 2194 469 2647 469 
Q 3041 469 3416 620 
Q 3791 772 3984 944 
L 3984 1797 
L 2638 1797 
z
" transform="scale(0.015625)"/>
      </defs>
      <use xlink:href="#ArialMT-47"/>
      <use xlink:href="#ArialMT-65" x="77.783203"/>
      <use xlink:href="#ArialMT-72" x="133.398438"/>
      <use xlink:href="#ArialMT-6d" x="166.699219"/>
      <use xlink:href="#ArialMT-61" x="250"/>
      <use xlink:href="#ArialMT-6e" x="305.615234"/>
      <use xlink:href="#ArialMT-79" x="361.230469"/>
      <use xlink:href="#ArialMT-20" x="411.230469"/>
      <use xlink:href="#ArialMT-28" x="439.013672"/>
      <use xlink:href="#ArialMT-6c" x="472.314453"/>
      <use xlink:href="#ArialMT-69" x="494.53125"/>
      <use xlink:href="#ArialMT-6e" x="516.748047"/>
      <use xlink:href="#ArialMT-65" x="572.363281"/>
      <use xlink:href="#ArialMT-29" x="627.978516"/>
     </g>
    </g>
    <g id="line2d_28">
     <path d="M 679.816875 88.861875 
L 685.816875 88.861875 
L 691.816875 88.861875 
" style="fill: none; stroke: #2ca02c; stroke-opacity: 0.6; stroke-linecap: round"/>
    </g>
    <g id="text_16">
     <!-- India (line) -->
     <g style="fill: #262626" transform="translate(696.616875 90.961875) scale(0.06 -0.06)">
      <defs>
       <path id="ArialMT-49" d="M 597 0 
L 597 4581 
L 1203 4581 
L 1203 0 
L 597 0 
z
" transform="scale(0.015625)"/>
      </defs>
      <use xlink:href="#ArialMT-49"/>
      <use xlink:href="#ArialMT-6e" x="27.783203"/>
      <use xlink:href="#ArialMT-64" x="83.398438"/>
      <use xlink:href="#ArialMT-69" x="139.013672"/>
      <use xlink:href="#ArialMT-61" x="161.230469"/>
      <use xlink:href="#ArialMT-20" x="216.845703"/>
      <use xlink:href="#ArialMT-28" x="244.628906"/>
      <use xlink:href="#ArialMT-6c" x="277.929688"/>
      <use xlink:href="#ArialMT-69" x="300.146484"/>
      <use xlink:href="#ArialMT-6e" x="322.363281"/>
      <use xlink:href="#ArialMT-65" x="377.978516"/>
      <use xlink:href="#ArialMT-29" x="433.59375"/>
     </g>
    </g>
    <g id="line2d_29">
     <path d="M 679.816875 97.4925 
L 685.816875 97.4925 
L 691.816875 97.4925 
" style="fill: none; stroke: #98df8a; stroke-opacity: 0.6; stroke-linecap: round"/>
    </g>
    <g id="text_17">
     <!-- Indonesia (line) -->
     <g style="fill: #262626" transform="translate(696.616875 99.5925) scale(0.06 -0.06)">
      <defs>
       <path id="ArialMT-6f" d="M 213 1659 
Q 213 2581 725 3025 
Q 1153 3394 1769 3394 
Q 2453 3394 2887 2945 
Q 3322 2497 3322 1706 
Q 3322 1066 3130 698 
Q 2938 331 2570 128 
Q 2203 -75 1769 -75 
Q 1072 -75 642 372 
Q 213 819 213 1659 
z
M 791 1659 
Q 791 1022 1069 705 
Q 1347 388 1769 388 
Q 2188 388 2466 706 
Q 2744 1025 2744 1678 
Q 2744 2294 2464 2611 
Q 2184 2928 1769 2928 
Q 1347 2928 1069 2612 
Q 791 2297 791 1659 
z
" transform="scale(0.015625)"/>
      </defs>
      <use xlink:href="#ArialMT-49"/>
      <use xlink:href="#ArialMT-6e" x="27.783203"/>
      <use xlink:href="#ArialMT-64" x="83.398438"/>
      <use xlink:href="#ArialMT-6f" x="139.013672"/>
      <use xlink:href="#ArialMT-6e" x="194.628906"/>
      <use xlink:href="#ArialMT-65" x="250.244141"/>
      <use xlink:href="#ArialMT-73" x="305.859375"/>
      <use xlink:href="#ArialMT-69" x="355.859375"/>
      <use xlink:href="#ArialMT-61" x="378.076172"/>
      <use xlink:href="#ArialMT-20" x="433.691406"/>
      <use xlink:href="#ArialMT-28" x="461.474609"/>
      <use xlink:href="#ArialMT-6c" x="494.775391"/>
      <use xlink:href="#ArialMT-69" x="516.992188"/>
      <use xlink:href="#ArialMT-6e" x="539.208984"/>
      <use xlink:href="#ArialMT-65" x="594.824219"/>
      <use xlink:href="#ArialMT-29" x="650.439453"/>
     </g>
    </g>
    <g id="line2d_30">
     <path d="M 679.816875 106.123125 
L 685.816875 106.123125 
L 691.816875 106.123125 
" style="fill: none; stroke: #ff9896; stroke-opacity: 0.6; stroke-linecap: round"/>
    </g>
    <g id="text_18">
     <!-- Netherlands (line) -->
     <g style="fill: #262626" transform="translate(696.616875 108.223125) scale(0.06 -0.06)">
      <defs>
       <path id="ArialMT-4e" d="M 488 0 
L 488 4581 
L 1109 4581 
L 3516 984 
L 3516 4581 
L 4097 4581 
L 4097 0 
L 3475 0 
L 1069 3600 
L 1069 0 
L 488 0 
z
" transform="scale(0.015625)"/>
      </defs>
      <use xlink:href="#ArialMT-4e"/>
      <use xlink:href="#ArialMT-65" x="72.216797"/>
      <use xlink:href="#ArialMT-74" x="127.832031"/>
      <use xlink:href="#ArialMT-68" x="155.615234"/>
      <use xlink:href="#ArialMT-65" x="211.230469"/>
      <use xlink:href="#ArialMT-72" x="266.845703"/>
      <use xlink:href="#ArialMT-6c" x="300.146484"/>
      <use xlink:href="#ArialMT-61" x="322.363281"/>
      <use xlink:href="#ArialMT-6e" x="377.978516"/>
      <use xlink:href="#ArialMT-64" x="433.59375"/>
      <use xlink:href="#ArialMT-73" x="489.208984"/>
      <use xlink:href="#ArialMT-20" x="539.208984"/>
      <use xlink:href="#ArialMT-28" x="566.992188"/>
      <use xlink:href="#ArialMT-6c" x="600.292969"/>
      <use xlink:href="#ArialMT-69" x="622.509766"/>
      <use xlink:href="#ArialMT-6e" x="644.726562"/>
      <use xlink:href="#ArialMT-65" x="700.341797"/>
      <use xlink:href="#ArialMT-29" x="755.957031"/>
     </g>
    </g>
    <g id="line2d_31">
     <path d="M 679.816875 114.75375 
L 685.816875 114.75375 
L 691.816875 114.75375 
" style="fill: none; stroke: #9467bd; stroke-opacity: 0.6; stroke-linecap: round"/>
    </g>
    <g id="text_19">
     <!-- South Korea (line) -->
     <g style="fill: #262626" transform="translate(696.616875 116.85375) scale(0.06 -0.06)">
      <defs>
       <path id="ArialMT-4b" d="M 469 0 
L 469 4581 
L 1075 4581 
L 1075 2309 
L 3350 4581 
L 4172 4581 
L 2250 2725 
L 4256 0 
L 3456 0 
L 1825 2319 
L 1075 1588 
L 1075 0 
L 469 0 
z
" transform="scale(0.015625)"/>
      </defs>
      <use xlink:href="#ArialMT-53"/>
      <use xlink:href="#ArialMT-6f" x="66.699219"/>
      <use xlink:href="#ArialMT-75" x="122.314453"/>
      <use xlink:href="#ArialMT-74" x="177.929688"/>
      <use xlink:href="#ArialMT-68" x="205.712891"/>
      <use xlink:href="#ArialMT-20" x="261.328125"/>
      <use xlink:href="#ArialMT-4b" x="289.111328"/>
      <use xlink:href="#ArialMT-6f" x="355.810547"/>
      <use xlink:href="#ArialMT-72" x="411.425781"/>
      <use xlink:href="#ArialMT-65" x="444.726562"/>
      <use xlink:href="#ArialMT-61" x="500.341797"/>
      <use xlink:href="#ArialMT-20" x="555.957031"/>
      <use xlink:href="#ArialMT-28" x="583.740234"/>
      <use xlink:href="#ArialMT-6c" x="617.041016"/>
      <use xlink:href="#ArialMT-69" x="639.257812"/>
      <use xlink:href="#ArialMT-6e" x="661.474609"/>
      <use xlink:href="#ArialMT-65" x="717.089844"/>
      <use xlink:href="#ArialMT-29" x="772.705078"/>
     </g>
    </g>
    <g id="line2d_32">
     <path d="M 770.307187 28.877813 
L 776.307187 28.877813 
L 782.307187 28.877813 
" style="fill: none; stroke: #c5b0d5; stroke-opacity: 0.6; stroke-linecap: round"/>
    </g>
    <g id="text_20">
     <!-- cpu (line) -->
     <g style="fill: #262626" transform="translate(787.107187 30.977813) scale(0.06 -0.06)">
      <defs>
       <path id="ArialMT-70" d="M 422 -1272 
L 422 3319 
L 934 3319 
L 934 2888 
Q 1116 3141 1344 3267 
Q 1572 3394 1897 3394 
Q 2322 3394 2647 3175 
Q 2972 2956 3137 2557 
Q 3303 2159 3303 1684 
Q 3303 1175 3120 767 
Q 2938 359 2589 142 
Q 2241 -75 1856 -75 
Q 1575 -75 1351 44 
Q 1128 163 984 344 
L 984 -1272 
L 422 -1272 
z
M 931 1641 
Q 931 1000 1190 694 
Q 1450 388 1819 388 
Q 2194 388 2461 705 
Q 2728 1022 2728 1688 
Q 2728 2322 2467 2637 
Q 2206 2953 1844 2953 
Q 1484 2953 1207 2617 
Q 931 2281 931 1641 
z
" transform="scale(0.015625)"/>
      </defs>
      <use xlink:href="#ArialMT-63"/>
      <use xlink:href="#ArialMT-70" x="50"/>
      <use xlink:href="#ArialMT-75" x="105.615234"/>
      <use xlink:href="#ArialMT-20" x="161.230469"/>
      <use xlink:href="#ArialMT-28" x="189.013672"/>
      <use xlink:href="#ArialMT-6c" x="222.314453"/>
      <use xlink:href="#ArialMT-69" x="244.53125"/>
      <use xlink:href="#ArialMT-6e" x="266.748047"/>
      <use xlink:href="#ArialMT-65" x="322.363281"/>
      <use xlink:href="#ArialMT-29" x="377.978516"/>
     </g>
    </g>
    <g id="line2d_33">
     <path d="M 770.307187 37.508438 
L 776.307187 37.508438 
L 782.307187 37.508438 
" style="fill: none; stroke: #8c564b; stroke-opacity: 0.6; stroke-linecap: round"/>
    </g>
    <g id="text_21">
     <!-- ecoli (line) -->
     <g style="fill: #262626" transform="translate(787.107187 39.608438) scale(0.06 -0.06)">
      <use xlink:href="#ArialMT-65"/>
      <use xlink:href="#ArialMT-63" x="55.615234"/>
      <use xlink:href="#ArialMT-6f" x="105.615234"/>
      <use xlink:href="#ArialMT-6c" x="161.230469"/>
      <use xlink:href="#ArialMT-69" x="183.447266"/>
      <use xlink:href="#ArialMT-20" x="205.664062"/>
      <use xlink:href="#ArialMT-28" x="233.447266"/>
      <use xlink:href="#ArialMT-6c" x="266.748047"/>
      <use xlink:href="#ArialMT-69" x="288.964844"/>
      <use xlink:href="#ArialMT-6e" x="311.181641"/>
      <use xlink:href="#ArialMT-65" x="366.796875"/>
      <use xlink:href="#ArialMT-29" x="422.412109"/>
     </g>
    </g>
    <g id="line2d_34">
     <path d="M 770.307187 46.139063 
L 776.307187 46.139063 
L 782.307187 46.139063 
" style="fill: none; stroke: #c49c94; stroke-opacity: 0.6; stroke-linecap: round"/>
    </g>
    <g id="text_22">
     <!-- elevators (line) -->
     <g style="fill: #262626" transform="translate(787.107187 48.239063) scale(0.06 -0.06)">
      <defs>
       <path id="ArialMT-76" d="M 1344 0 
L 81 3319 
L 675 3319 
L 1388 1331 
Q 1503 1009 1600 663 
Q 1675 925 1809 1294 
L 2547 3319 
L 3125 3319 
L 1869 0 
L 1344 0 
z
" transform="scale(0.015625)"/>
      </defs>
      <use xlink:href="#ArialMT-65"/>
      <use xlink:href="#ArialMT-6c" x="55.615234"/>
      <use xlink:href="#ArialMT-65" x="77.832031"/>
      <use xlink:href="#ArialMT-76" x="133.447266"/>
      <use xlink:href="#ArialMT-61" x="183.447266"/>
      <use xlink:href="#ArialMT-74" x="239.0625"/>
      <use xlink:href="#ArialMT-6f" x="266.845703"/>
      <use xlink:href="#ArialMT-72" x="322.460938"/>
      <use xlink:href="#ArialMT-73" x="355.761719"/>
      <use xlink:href="#ArialMT-20" x="405.761719"/>
      <use xlink:href="#ArialMT-28" x="433.544922"/>
      <use xlink:href="#ArialMT-6c" x="466.845703"/>
      <use xlink:href="#ArialMT-69" x="489.0625"/>
      <use xlink:href="#ArialMT-6e" x="511.279297"/>
      <use xlink:href="#ArialMT-65" x="566.894531"/>
      <use xlink:href="#ArialMT-29" x="622.509766"/>
     </g>
    </g>
    <g id="line2d_35">
     <path d="M 770.307187 54.769688 
L 776.307187 54.769688 
L 782.307187 54.769688 
" style="fill: none; stroke: #e377c2; stroke-opacity: 0.6; stroke-linecap: round"/>
    </g>
    <g id="text_23">
     <!-- large_economies (line) -->
     <g style="fill: #262626" transform="translate(787.107187 56.869688) scale(0.06 -0.06)">
      <defs>
       <path id="ArialMT-5f" d="M -97 -1272 
L -97 -866 
L 3631 -866 
L 3631 -1272 
L -97 -1272 
z
" transform="scale(0.015625)"/>
      </defs>
      <use xlink:href="#ArialMT-6c"/>
      <use xlink:href="#ArialMT-61" x="22.216797"/>
      <use xlink:href="#ArialMT-72" x="77.832031"/>
      <use xlink:href="#ArialMT-67" x="111.132812"/>
      <use xlink:href="#ArialMT-65" x="166.748047"/>
      <use xlink:href="#ArialMT-5f" x="222.363281"/>
      <use xlink:href="#ArialMT-65" x="277.978516"/>
      <use xlink:href="#ArialMT-63" x="333.59375"/>
      <use xlink:href="#ArialMT-6f" x="383.59375"/>
      <use xlink:href="#ArialMT-6e" x="439.208984"/>
      <use xlink:href="#ArialMT-6f" x="494.824219"/>
      <use xlink:href="#ArialMT-6d" x="550.439453"/>
      <use xlink:href="#ArialMT-69" x="633.740234"/>
      <use xlink:href="#ArialMT-65" x="655.957031"/>
      <use xlink:href="#ArialMT-73" x="711.572266"/>
      <use xlink:href="#ArialMT-20" x="761.572266"/>
      <use xlink:href="#ArialMT-28" x="789.355469"/>
      <use xlink:href="#ArialMT-6c" x="822.65625"/>
      <use xlink:href="#ArialMT-69" x="844.873047"/>
      <use xlink:href="#ArialMT-6e" x="867.089844"/>
      <use xlink:href="#ArialMT-65" x="922.705078"/>
      <use xlink:href="#ArialMT-29" x="978.320312"/>
     </g>
    </g>
    <g id="line2d_36">
     <path d="M 770.307187 63.400313 
L 776.307187 63.400313 
L 782.307187 63.400313 
" style="fill: none; stroke: #7f7f7f; stroke-opacity: 0.6; stroke-linecap: round"/>
    </g>
    <g id="text_24">
     <!-- student_math (line) -->
     <g style="fill: #262626" transform="translate(787.107187 65.500313) scale(0.06 -0.06)">
      <use xlink:href="#ArialMT-73"/>
      <use xlink:href="#ArialMT-74" x="50"/>
      <use xlink:href="#ArialMT-75" x="77.783203"/>
      <use xlink:href="#ArialMT-64" x="133.398438"/>
      <use xlink:href="#ArialMT-65" x="189.013672"/>
      <use xlink:href="#ArialMT-6e" x="244.628906"/>
      <use xlink:href="#ArialMT-74" x="300.244141"/>
      <use xlink:href="#ArialMT-5f" x="328.027344"/>
      <use xlink:href="#ArialMT-6d" x="383.642578"/>
      <use xlink:href="#ArialMT-61" x="466.943359"/>
      <use xlink:href="#ArialMT-74" x="522.558594"/>
      <use xlink:href="#ArialMT-68" x="550.341797"/>
      <use xlink:href="#ArialMT-20" x="605.957031"/>
      <use xlink:href="#ArialMT-28" x="633.740234"/>
      <use xlink:href="#ArialMT-6c" x="667.041016"/>
      <use xlink:href="#ArialMT-69" x="689.257812"/>
      <use xlink:href="#ArialMT-6e" x="711.474609"/>
      <use xlink:href="#ArialMT-65" x="767.089844"/>
      <use xlink:href="#ArialMT-29" x="822.705078"/>
     </g>
    </g>
    <g id="line2d_37">
     <path d="M 770.307187 72.030938 
L 776.307187 72.030938 
L 782.307187 72.030938 
" style="fill: none; stroke: #c7c7c7; stroke-opacity: 0.6; stroke-linecap: round"/>
    </g>
    <g id="text_25">
     <!-- student_por (line) -->
     <g style="fill: #262626" transform="translate(787.107187 74.130938) scale(0.06 -0.06)">
      <use xlink:href="#ArialMT-73"/>
      <use xlink:href="#ArialMT-74" x="50"/>
      <use xlink:href="#ArialMT-75" x="77.783203"/>
      <use xlink:href="#ArialMT-64" x="133.398438"/>
      <use xlink:href="#ArialMT-65" x="189.013672"/>
      <use xlink:href="#ArialMT-6e" x="244.628906"/>
      <use xlink:href="#ArialMT-74" x="300.244141"/>
      <use xlink:href="#ArialMT-5f" x="328.027344"/>
      <use xlink:href="#ArialMT-70" x="383.642578"/>
      <use xlink:href="#ArialMT-6f" x="439.257812"/>
      <use xlink:href="#ArialMT-72" x="494.873047"/>
      <use xlink:href="#ArialMT-20" x="528.173828"/>
      <use xlink:href="#ArialMT-28" x="555.957031"/>
      <use xlink:href="#ArialMT-6c" x="589.257812"/>
      <use xlink:href="#ArialMT-69" x="611.474609"/>
      <use xlink:href="#ArialMT-6e" x="633.691406"/>
      <use xlink:href="#ArialMT-65" x="689.306641"/>
      <use xlink:href="#ArialMT-29" x="744.921875"/>
     </g>
    </g>
    <g id="line2d_38">
     <path d="M 770.307187 80.661563 
L 776.307187 80.661563 
L 782.307187 80.661563 
" style="fill: none; stroke: #bcbd22; stroke-opacity: 0.6; stroke-linecap: round"/>
    </g>
    <g id="text_26">
     <!-- sushi (line) -->
     <g style="fill: #262626" transform="translate(787.107187 82.761563) scale(0.06 -0.06)">
      <use xlink:href="#ArialMT-73"/>
      <use xlink:href="#ArialMT-75" x="50"/>
      <use xlink:href="#ArialMT-73" x="105.615234"/>
      <use xlink:href="#ArialMT-68" x="155.615234"/>
      <use xlink:href="#ArialMT-69" x="211.230469"/>
      <use xlink:href="#ArialMT-20" x="233.447266"/>
      <use xlink:href="#ArialMT-28" x="261.230469"/>
      <use xlink:href="#ArialMT-6c" x="294.53125"/>
      <use xlink:href="#ArialMT-69" x="316.748047"/>
      <use xlink:href="#ArialMT-6e" x="338.964844"/>
      <use xlink:href="#ArialMT-65" x="394.580078"/>
      <use xlink:href="#ArialMT-29" x="450.195312"/>
     </g>
    </g>
    <g id="line2d_39">
     <path d="M 770.307187 89.292188 
L 776.307187 89.292188 
L 782.307187 89.292188 
" style="fill: none; stroke: #dbdb8d; stroke-opacity: 0.6; stroke-linecap: round"/>
    </g>
    <g id="text_27">
     <!-- voting (line) -->
     <g style="fill: #262626" transform="translate(787.107187 91.392188) scale(0.06 -0.06)">
      <use xlink:href="#ArialMT-76"/>
      <use xlink:href="#ArialMT-6f" x="50"/>
      <use xlink:href="#ArialMT-74" x="105.615234"/>
      <use xlink:href="#ArialMT-69" x="133.398438"/>
      <use xlink:href="#ArialMT-6e" x="155.615234"/>
      <use xlink:href="#ArialMT-67" x="211.230469"/>
      <use xlink:href="#ArialMT-20" x="266.845703"/>
      <use xlink:href="#ArialMT-28" x="294.628906"/>
      <use xlink:href="#ArialMT-6c" x="327.929688"/>
      <use xlink:href="#ArialMT-69" x="350.146484"/>
      <use xlink:href="#ArialMT-6e" x="372.363281"/>
      <use xlink:href="#ArialMT-65" x="427.978516"/>
      <use xlink:href="#ArialMT-29" x="483.59375"/>
     </g>
    </g>
    <g id="line2d_40">
     <path d="M 770.307187 97.922813 
L 776.307187 97.922813 
L 782.307187 97.922813 
" style="fill: none; stroke: #17becf; stroke-opacity: 0.6; stroke-linecap: round"/>
    </g>
    <g id="text_28">
     <!-- wine (line) -->
     <g style="fill: #262626" transform="translate(787.107187 100.022813) scale(0.06 -0.06)">
      <defs>
       <path id="ArialMT-77" d="M 1034 0 
L 19 3319 
L 600 3319 
L 1128 1403 
L 1325 691 
Q 1338 744 1497 1375 
L 2025 3319 
L 2603 3319 
L 3100 1394 
L 3266 759 
L 3456 1400 
L 4025 3319 
L 4572 3319 
L 3534 0 
L 2950 0 
L 2422 1988 
L 2294 2553 
L 1622 0 
L 1034 0 
z
" transform="scale(0.015625)"/>
      </defs>
      <use xlink:href="#ArialMT-77"/>
      <use xlink:href="#ArialMT-69" x="72.216797"/>
      <use xlink:href="#ArialMT-6e" x="94.433594"/>
      <use xlink:href="#ArialMT-65" x="150.048828"/>
      <use xlink:href="#ArialMT-20" x="205.664062"/>
      <use xlink:href="#ArialMT-28" x="233.447266"/>
      <use xlink:href="#ArialMT-6c" x="266.748047"/>
      <use xlink:href="#ArialMT-69" x="288.964844"/>
      <use xlink:href="#ArialMT-6e" x="311.181641"/>
      <use xlink:href="#ArialMT-65" x="366.796875"/>
      <use xlink:href="#ArialMT-29" x="422.412109"/>
     </g>
    </g>
    <g id="line2d_41">
     <path d="M 770.307187 106.553438 
L 776.307187 106.553438 
L 782.307187 106.553438 
" style="fill: none; stroke: #9edae5; stroke-opacity: 0.6; stroke-linecap: round"/>
    </g>
    <g id="text_29">
     <!-- wisconsin (line) -->
     <g style="fill: #262626" transform="translate(787.107187 108.653437) scale(0.06 -0.06)">
      <use xlink:href="#ArialMT-77"/>
      <use xlink:href="#ArialMT-69" x="72.216797"/>
      <use xlink:href="#ArialMT-73" x="94.433594"/>
      <use xlink:href="#ArialMT-63" x="144.433594"/>
      <use xlink:href="#ArialMT-6f" x="194.433594"/>
      <use xlink:href="#ArialMT-6e" x="250.048828"/>
      <use xlink:href="#ArialMT-73" x="305.664062"/>
      <use xlink:href="#ArialMT-69" x="355.664062"/>
      <use xlink:href="#ArialMT-6e" x="377.880859"/>
      <use xlink:href="#ArialMT-20" x="433.496094"/>
      <use xlink:href="#ArialMT-28" x="461.279297"/>
      <use xlink:href="#ArialMT-6c" x="494.580078"/>
      <use xlink:href="#ArialMT-69" x="516.796875"/>
      <use xlink:href="#ArialMT-6e" x="539.013672"/>
      <use xlink:href="#ArialMT-65" x="594.628906"/>
      <use xlink:href="#ArialMT-29" x="650.244141"/>
     </g>
    </g>
   </g>
  </g>
 </g>
 <defs>
  <clipPath id="p5cda4aa371">
   <rect x="50.996158" y="10.8" width="802.203842" height="515.046625"/>
  </clipPath>
 </defs>
</svg>
