<?xml version="1.0" encoding="utf-8" standalone="no"?>
<!DOCTYPE svg PUBLIC "-//W3C//DTD SVG 1.1//EN"
  "http://www.w3.org/Graphics/SVG/1.1/DTD/svg11.dtd">
<svg xmlns:xlink="http://www.w3.org/1999/xlink" width="864pt" height="72pt" viewBox="0 0 864 72" xmlns="http://www.w3.org/2000/svg" version="1.1">
 <metadata>
  <rdf:RDF xmlns:dc="http://purl.org/dc/elements/1.1/" xmlns:cc="http://creativecommons.org/ns#" xmlns:rdf="http://www.w3.org/1999/02/22-rdf-syntax-ns#">
   <cc:Work>
    <dc:type rdf:resource="http://purl.org/dc/dcmitype/StillImage"/>
    <dc:date>2025-01-20T20:50:31.614888</dc:date>
    <dc:format>image/svg+xml</dc:format>
    <dc:creator>
     <cc:Agent>
      <dc:title>Matplotlib v3.9.2, https://matplotlib.org/</dc:title>
     </cc:Agent>
    </dc:creator>
   </cc:Work>
  </rdf:RDF>
 </metadata>
 <defs>
  <style type="text/css">*{stroke-linejoin: round; stroke-linecap: butt}</style>
 </defs>
 <g id="figure_1">
  <g id="patch_1">
   <path d="M 0 72 
L 864 72 
L 864 0 
L 0 0 
z
" style="fill: #ffffff"/>
  </g>
  <g id="axes_1">
   <g id="patch_2">
    <path d="M 108 64.08 
L 777.6 64.08 
L 777.6 8.64 
L 108 8.64 
z
" style="fill: #ffffff"/>
   </g>
   <g id="patch_3">
    <path d="M 138.436364 64.08 
L 141.48 64.08 
L 141.48 64.08 
L 138.436364 64.08 
z
" clip-path="url(#p7cfb0cf8fa)" style="stroke: #000000; stroke-linejoin: miter"/>
   </g>
   <g id="patch_4">
    <path d="M 141.48 64.08 
L 144.523636 64.08 
L 144.523636 64.08 
L 141.48 64.08 
z
" clip-path="url(#p7cfb0cf8fa)" style="stroke: #000000; stroke-linejoin: miter"/>
   </g>
   <g id="patch_5">
    <path d="M 144.523636 64.08 
L 147.567273 64.08 
L 147.567273 11.28 
L 144.523636 11.28 
z
" clip-path="url(#p7cfb0cf8fa)" style="stroke: #000000; stroke-linejoin: miter"/>
   </g>
   <g id="patch_6">
    <path d="M 147.567273 64.08 
L 150.610909 64.08 
L 150.610909 55.28 
L 147.567273 55.28 
z
" clip-path="url(#p7cfb0cf8fa)" style="stroke: #000000; stroke-linejoin: miter"/>
   </g>
   <g id="patch_7">
    <path d="M 150.610909 64.08 
L 153.654545 64.08 
L 153.654545 64.08 
L 150.610909 64.08 
z
" clip-path="url(#p7cfb0cf8fa)" style="stroke: #000000; stroke-linejoin: miter"/>
   </g>
   <g id="patch_8">
    <path d="M 153.654545 64.08 
L 156.698182 64.08 
L 156.698182 42.08 
L 153.654545 42.08 
z
" clip-path="url(#p7cfb0cf8fa)" style="stroke: #000000; stroke-linejoin: miter"/>
   </g>
   <g id="patch_9">
    <path d="M 156.698182 64.08 
L 159.741818 64.08 
L 159.741818 55.28 
L 156.698182 55.28 
z
" clip-path="url(#p7cfb0cf8fa)" style="stroke: #000000; stroke-linejoin: miter"/>
   </g>
   <g id="patch_10">
    <path d="M 159.741818 64.08 
L 162.785455 64.08 
L 162.785455 42.08 
L 159.741818 42.08 
z
" clip-path="url(#p7cfb0cf8fa)" style="stroke: #000000; stroke-linejoin: miter"/>
   </g>
   <g id="patch_11">
    <path d="M 162.785455 64.08 
L 165.829091 64.08 
L 165.829091 64.08 
L 162.785455 64.08 
z
" clip-path="url(#p7cfb0cf8fa)" style="stroke: #000000; stroke-linejoin: miter"/>
   </g>
   <g id="patch_12">
    <path d="M 165.829091 64.08 
L 168.872727 64.08 
L 168.872727 33.28 
L 165.829091 33.28 
z
" clip-path="url(#p7cfb0cf8fa)" style="stroke: #000000; stroke-linejoin: miter"/>
   </g>
   <g id="patch_13">
    <path d="M 168.872727 64.08 
L 171.916364 64.08 
L 171.916364 37.68 
L 168.872727 37.68 
z
" clip-path="url(#p7cfb0cf8fa)" style="stroke: #000000; stroke-linejoin: miter"/>
   </g>
   <g id="patch_14">
    <path d="M 171.916364 64.08 
L 174.96 64.08 
L 174.96 37.68 
L 171.916364 37.68 
z
" clip-path="url(#p7cfb0cf8fa)" style="stroke: #000000; stroke-linejoin: miter"/>
   </g>
   <g id="patch_15">
    <path d="M 174.96 64.08 
L 178.003636 64.08 
L 178.003636 64.08 
L 174.96 64.08 
z
" clip-path="url(#p7cfb0cf8fa)" style="stroke: #000000; stroke-linejoin: miter"/>
   </g>
   <g id="patch_16">
    <path d="M 178.003636 64.08 
L 181.047273 64.08 
L 181.047273 64.08 
L 178.003636 64.08 
z
" clip-path="url(#p7cfb0cf8fa)" style="stroke: #000000; stroke-linejoin: miter"/>
   </g>
   <g id="patch_17">
    <path d="M 181.047273 64.08 
L 184.090909 64.08 
L 184.090909 64.08 
L 181.047273 64.08 
z
" clip-path="url(#p7cfb0cf8fa)" style="stroke: #000000; stroke-linejoin: miter"/>
   </g>
   <g id="patch_18">
    <path d="M 184.090909 64.08 
L 187.134545 64.08 
L 187.134545 64.08 
L 184.090909 64.08 
z
" clip-path="url(#p7cfb0cf8fa)" style="stroke: #000000; stroke-linejoin: miter"/>
   </g>
   <g id="patch_19">
    <path d="M 187.134545 64.08 
L 190.178182 64.08 
L 190.178182 64.08 
L 187.134545 64.08 
z
" clip-path="url(#p7cfb0cf8fa)" style="stroke: #000000; stroke-linejoin: miter"/>
   </g>
   <g id="patch_20">
    <path d="M 190.178182 64.08 
L 193.221818 64.08 
L 193.221818 59.68 
L 190.178182 59.68 
z
" clip-path="url(#p7cfb0cf8fa)" style="stroke: #000000; stroke-linejoin: miter"/>
   </g>
   <g id="patch_21">
    <path d="M 193.221818 64.08 
L 196.265455 64.08 
L 196.265455 42.08 
L 193.221818 42.08 
z
" clip-path="url(#p7cfb0cf8fa)" style="stroke: #000000; stroke-linejoin: miter"/>
   </g>
   <g id="patch_22">
    <path d="M 196.265455 64.08 
L 199.309091 64.08 
L 199.309091 59.68 
L 196.265455 59.68 
z
" clip-path="url(#p7cfb0cf8fa)" style="stroke: #000000; stroke-linejoin: miter"/>
   </g>
   <g id="patch_23">
    <path d="M 199.309091 64.08 
L 202.352727 64.08 
L 202.352727 64.08 
L 199.309091 64.08 
z
" clip-path="url(#p7cfb0cf8fa)" style="stroke: #000000; stroke-linejoin: miter"/>
   </g>
   <g id="patch_24">
    <path d="M 202.352727 64.08 
L 205.396364 64.08 
L 205.396364 42.08 
L 202.352727 42.08 
z
" clip-path="url(#p7cfb0cf8fa)" style="stroke: #000000; stroke-linejoin: miter"/>
   </g>
   <g id="patch_25">
    <path d="M 205.396364 64.08 
L 208.44 64.08 
L 208.44 64.08 
L 205.396364 64.08 
z
" clip-path="url(#p7cfb0cf8fa)" style="stroke: #000000; stroke-linejoin: miter"/>
   </g>
   <g id="patch_26">
    <path d="M 208.44 64.08 
L 211.483636 64.08 
L 211.483636 55.28 
L 208.44 55.28 
z
" clip-path="url(#p7cfb0cf8fa)" style="stroke: #000000; stroke-linejoin: miter"/>
   </g>
   <g id="patch_27">
    <path d="M 211.483636 64.08 
L 214.527273 64.08 
L 214.527273 64.08 
L 211.483636 64.08 
z
" clip-path="url(#p7cfb0cf8fa)" style="stroke: #000000; stroke-linejoin: miter"/>
   </g>
   <g id="patch_28">
    <path d="M 214.527273 64.08 
L 217.570909 64.08 
L 217.570909 59.68 
L 214.527273 59.68 
z
" clip-path="url(#p7cfb0cf8fa)" style="stroke: #000000; stroke-linejoin: miter"/>
   </g>
   <g id="patch_29">
    <path d="M 217.570909 64.08 
L 220.614545 64.08 
L 220.614545 64.08 
L 217.570909 64.08 
z
" clip-path="url(#p7cfb0cf8fa)" style="stroke: #000000; stroke-linejoin: miter"/>
   </g>
   <g id="patch_30">
    <path d="M 220.614545 64.08 
L 223.658182 64.08 
L 223.658182 55.28 
L 220.614545 55.28 
z
" clip-path="url(#p7cfb0cf8fa)" style="stroke: #000000; stroke-linejoin: miter"/>
   </g>
   <g id="patch_31">
    <path d="M 223.658182 64.08 
L 226.701818 64.08 
L 226.701818 64.08 
L 223.658182 64.08 
z
" clip-path="url(#p7cfb0cf8fa)" style="stroke: #000000; stroke-linejoin: miter"/>
   </g>
   <g id="patch_32">
    <path d="M 226.701818 64.08 
L 229.745455 64.08 
L 229.745455 59.68 
L 226.701818 59.68 
z
" clip-path="url(#p7cfb0cf8fa)" style="stroke: #000000; stroke-linejoin: miter"/>
   </g>
   <g id="patch_33">
    <path d="M 229.745455 64.08 
L 232.789091 64.08 
L 232.789091 59.68 
L 229.745455 59.68 
z
" clip-path="url(#p7cfb0cf8fa)" style="stroke: #000000; stroke-linejoin: miter"/>
   </g>
   <g id="patch_34">
    <path d="M 232.789091 64.08 
L 235.832727 64.08 
L 235.832727 64.08 
L 232.789091 64.08 
z
" clip-path="url(#p7cfb0cf8fa)" style="stroke: #000000; stroke-linejoin: miter"/>
   </g>
   <g id="patch_35">
    <path d="M 235.832727 64.08 
L 238.876364 64.08 
L 238.876364 64.08 
L 235.832727 64.08 
z
" clip-path="url(#p7cfb0cf8fa)" style="stroke: #000000; stroke-linejoin: miter"/>
   </g>
   <g id="patch_36">
    <path d="M 238.876364 64.08 
L 241.92 64.08 
L 241.92 46.48 
L 238.876364 46.48 
z
" clip-path="url(#p7cfb0cf8fa)" style="stroke: #000000; stroke-linejoin: miter"/>
   </g>
   <g id="patch_37">
    <path d="M 241.92 64.08 
L 244.963636 64.08 
L 244.963636 64.08 
L 241.92 64.08 
z
" clip-path="url(#p7cfb0cf8fa)" style="stroke: #000000; stroke-linejoin: miter"/>
   </g>
   <g id="patch_38">
    <path d="M 244.963636 64.08 
L 248.007273 64.08 
L 248.007273 59.68 
L 244.963636 59.68 
z
" clip-path="url(#p7cfb0cf8fa)" style="stroke: #000000; stroke-linejoin: miter"/>
   </g>
   <g id="patch_39">
    <path d="M 248.007273 64.08 
L 251.050909 64.08 
L 251.050909 64.08 
L 248.007273 64.08 
z
" clip-path="url(#p7cfb0cf8fa)" style="stroke: #000000; stroke-linejoin: miter"/>
   </g>
   <g id="patch_40">
    <path d="M 251.050909 64.08 
L 254.094545 64.08 
L 254.094545 64.08 
L 251.050909 64.08 
z
" clip-path="url(#p7cfb0cf8fa)" style="stroke: #000000; stroke-linejoin: miter"/>
   </g>
   <g id="patch_41">
    <path d="M 254.094545 64.08 
L 257.138182 64.08 
L 257.138182 64.08 
L 254.094545 64.08 
z
" clip-path="url(#p7cfb0cf8fa)" style="stroke: #000000; stroke-linejoin: miter"/>
   </g>
   <g id="patch_42">
    <path d="M 257.138182 64.08 
L 260.181818 64.08 
L 260.181818 64.08 
L 257.138182 64.08 
z
" clip-path="url(#p7cfb0cf8fa)" style="stroke: #000000; stroke-linejoin: miter"/>
   </g>
   <g id="patch_43">
    <path d="M 260.181818 64.08 
L 263.225455 64.08 
L 263.225455 64.08 
L 260.181818 64.08 
z
" clip-path="url(#p7cfb0cf8fa)" style="stroke: #000000; stroke-linejoin: miter"/>
   </g>
   <g id="patch_44">
    <path d="M 263.225455 64.08 
L 266.269091 64.08 
L 266.269091 64.08 
L 263.225455 64.08 
z
" clip-path="url(#p7cfb0cf8fa)" style="stroke: #000000; stroke-linejoin: miter"/>
   </g>
   <g id="patch_45">
    <path d="M 266.269091 64.08 
L 269.312727 64.08 
L 269.312727 46.48 
L 266.269091 46.48 
z
" clip-path="url(#p7cfb0cf8fa)" style="stroke: #000000; stroke-linejoin: miter"/>
   </g>
   <g id="patch_46">
    <path d="M 269.312727 64.08 
L 272.356364 64.08 
L 272.356364 64.08 
L 269.312727 64.08 
z
" clip-path="url(#p7cfb0cf8fa)" style="stroke: #000000; stroke-linejoin: miter"/>
   </g>
   <g id="patch_47">
    <path d="M 272.356364 64.08 
L 275.4 64.08 
L 275.4 64.08 
L 272.356364 64.08 
z
" clip-path="url(#p7cfb0cf8fa)" style="stroke: #000000; stroke-linejoin: miter"/>
   </g>
   <g id="patch_48">
    <path d="M 275.4 64.08 
L 278.443636 64.08 
L 278.443636 64.08 
L 275.4 64.08 
z
" clip-path="url(#p7cfb0cf8fa)" style="stroke: #000000; stroke-linejoin: miter"/>
   </g>
   <g id="patch_49">
    <path d="M 278.443636 64.08 
L 281.487273 64.08 
L 281.487273 64.08 
L 278.443636 64.08 
z
" clip-path="url(#p7cfb0cf8fa)" style="stroke: #000000; stroke-linejoin: miter"/>
   </g>
   <g id="patch_50">
    <path d="M 281.487273 64.08 
L 284.530909 64.08 
L 284.530909 64.08 
L 281.487273 64.08 
z
" clip-path="url(#p7cfb0cf8fa)" style="stroke: #000000; stroke-linejoin: miter"/>
   </g>
   <g id="patch_51">
    <path d="M 284.530909 64.08 
L 287.574545 64.08 
L 287.574545 64.08 
L 284.530909 64.08 
z
" clip-path="url(#p7cfb0cf8fa)" style="stroke: #000000; stroke-linejoin: miter"/>
   </g>
   <g id="patch_52">
    <path d="M 287.574545 64.08 
L 290.618182 64.08 
L 290.618182 59.68 
L 287.574545 59.68 
z
" clip-path="url(#p7cfb0cf8fa)" style="stroke: #000000; stroke-linejoin: miter"/>
   </g>
   <g id="patch_53">
    <path d="M 290.618182 64.08 
L 293.661818 64.08 
L 293.661818 59.68 
L 290.618182 59.68 
z
" clip-path="url(#p7cfb0cf8fa)" style="stroke: #000000; stroke-linejoin: miter"/>
   </g>
   <g id="patch_54">
    <path d="M 293.661818 64.08 
L 296.705455 64.08 
L 296.705455 64.08 
L 293.661818 64.08 
z
" clip-path="url(#p7cfb0cf8fa)" style="stroke: #000000; stroke-linejoin: miter"/>
   </g>
   <g id="patch_55">
    <path d="M 296.705455 64.08 
L 299.749091 64.08 
L 299.749091 55.28 
L 296.705455 55.28 
z
" clip-path="url(#p7cfb0cf8fa)" style="stroke: #000000; stroke-linejoin: miter"/>
   </g>
   <g id="patch_56">
    <path d="M 299.749091 64.08 
L 302.792727 64.08 
L 302.792727 64.08 
L 299.749091 64.08 
z
" clip-path="url(#p7cfb0cf8fa)" style="stroke: #000000; stroke-linejoin: miter"/>
   </g>
   <g id="patch_57">
    <path d="M 302.792727 64.08 
L 305.836364 64.08 
L 305.836364 59.68 
L 302.792727 59.68 
z
" clip-path="url(#p7cfb0cf8fa)" style="stroke: #000000; stroke-linejoin: miter"/>
   </g>
   <g id="patch_58">
    <path d="M 305.836364 64.08 
L 308.88 64.08 
L 308.88 64.08 
L 305.836364 64.08 
z
" clip-path="url(#p7cfb0cf8fa)" style="stroke: #000000; stroke-linejoin: miter"/>
   </g>
   <g id="patch_59">
    <path d="M 308.88 64.08 
L 311.923636 64.08 
L 311.923636 64.08 
L 308.88 64.08 
z
" clip-path="url(#p7cfb0cf8fa)" style="stroke: #000000; stroke-linejoin: miter"/>
   </g>
   <g id="patch_60">
    <path d="M 311.923636 64.08 
L 314.967273 64.08 
L 314.967273 64.08 
L 311.923636 64.08 
z
" clip-path="url(#p7cfb0cf8fa)" style="stroke: #000000; stroke-linejoin: miter"/>
   </g>
   <g id="patch_61">
    <path d="M 314.967273 64.08 
L 318.010909 64.08 
L 318.010909 64.08 
L 314.967273 64.08 
z
" clip-path="url(#p7cfb0cf8fa)" style="stroke: #000000; stroke-linejoin: miter"/>
   </g>
   <g id="patch_62">
    <path d="M 318.010909 64.08 
L 321.054545 64.08 
L 321.054545 59.68 
L 318.010909 59.68 
z
" clip-path="url(#p7cfb0cf8fa)" style="stroke: #000000; stroke-linejoin: miter"/>
   </g>
   <g id="patch_63">
    <path d="M 321.054545 64.08 
L 324.098182 64.08 
L 324.098182 64.08 
L 321.054545 64.08 
z
" clip-path="url(#p7cfb0cf8fa)" style="stroke: #000000; stroke-linejoin: miter"/>
   </g>
   <g id="patch_64">
    <path d="M 324.098182 64.08 
L 327.141818 64.08 
L 327.141818 64.08 
L 324.098182 64.08 
z
" clip-path="url(#p7cfb0cf8fa)" style="stroke: #000000; stroke-linejoin: miter"/>
   </g>
   <g id="patch_65">
    <path d="M 327.141818 64.08 
L 330.185455 64.08 
L 330.185455 64.08 
L 327.141818 64.08 
z
" clip-path="url(#p7cfb0cf8fa)" style="stroke: #000000; stroke-linejoin: miter"/>
   </g>
   <g id="patch_66">
    <path d="M 330.185455 64.08 
L 333.229091 64.08 
L 333.229091 59.68 
L 330.185455 59.68 
z
" clip-path="url(#p7cfb0cf8fa)" style="stroke: #000000; stroke-linejoin: miter"/>
   </g>
   <g id="patch_67">
    <path d="M 333.229091 64.08 
L 336.272727 64.08 
L 336.272727 55.28 
L 333.229091 55.28 
z
" clip-path="url(#p7cfb0cf8fa)" style="stroke: #000000; stroke-linejoin: miter"/>
   </g>
   <g id="patch_68">
    <path d="M 336.272727 64.08 
L 339.316364 64.08 
L 339.316364 64.08 
L 336.272727 64.08 
z
" clip-path="url(#p7cfb0cf8fa)" style="stroke: #000000; stroke-linejoin: miter"/>
   </g>
   <g id="patch_69">
    <path d="M 339.316364 64.08 
L 342.36 64.08 
L 342.36 59.68 
L 339.316364 59.68 
z
" clip-path="url(#p7cfb0cf8fa)" style="stroke: #000000; stroke-linejoin: miter"/>
   </g>
   <g id="patch_70">
    <path d="M 342.36 64.08 
L 345.403636 64.08 
L 345.403636 64.08 
L 342.36 64.08 
z
" clip-path="url(#p7cfb0cf8fa)" style="stroke: #000000; stroke-linejoin: miter"/>
   </g>
   <g id="patch_71">
    <path d="M 345.403636 64.08 
L 348.447273 64.08 
L 348.447273 55.28 
L 345.403636 55.28 
z
" clip-path="url(#p7cfb0cf8fa)" style="stroke: #000000; stroke-linejoin: miter"/>
   </g>
   <g id="patch_72">
    <path d="M 348.447273 64.08 
L 351.490909 64.08 
L 351.490909 64.08 
L 348.447273 64.08 
z
" clip-path="url(#p7cfb0cf8fa)" style="stroke: #000000; stroke-linejoin: miter"/>
   </g>
   <g id="patch_73">
    <path d="M 351.490909 64.08 
L 354.534545 64.08 
L 354.534545 64.08 
L 351.490909 64.08 
z
" clip-path="url(#p7cfb0cf8fa)" style="stroke: #000000; stroke-linejoin: miter"/>
   </g>
   <g id="patch_74">
    <path d="M 354.534545 64.08 
L 357.578182 64.08 
L 357.578182 59.68 
L 354.534545 59.68 
z
" clip-path="url(#p7cfb0cf8fa)" style="stroke: #000000; stroke-linejoin: miter"/>
   </g>
   <g id="patch_75">
    <path d="M 357.578182 64.08 
L 360.621818 64.08 
L 360.621818 59.68 
L 357.578182 59.68 
z
" clip-path="url(#p7cfb0cf8fa)" style="stroke: #000000; stroke-linejoin: miter"/>
   </g>
   <g id="patch_76">
    <path d="M 360.621818 64.08 
L 363.665455 64.08 
L 363.665455 64.08 
L 360.621818 64.08 
z
" clip-path="url(#p7cfb0cf8fa)" style="stroke: #000000; stroke-linejoin: miter"/>
   </g>
   <g id="patch_77">
    <path d="M 363.665455 64.08 
L 366.709091 64.08 
L 366.709091 64.08 
L 363.665455 64.08 
z
" clip-path="url(#p7cfb0cf8fa)" style="stroke: #000000; stroke-linejoin: miter"/>
   </g>
   <g id="patch_78">
    <path d="M 366.709091 64.08 
L 369.752727 64.08 
L 369.752727 64.08 
L 366.709091 64.08 
z
" clip-path="url(#p7cfb0cf8fa)" style="stroke: #000000; stroke-linejoin: miter"/>
   </g>
   <g id="patch_79">
    <path d="M 369.752727 64.08 
L 372.796364 64.08 
L 372.796364 55.28 
L 369.752727 55.28 
z
" clip-path="url(#p7cfb0cf8fa)" style="stroke: #000000; stroke-linejoin: miter"/>
   </g>
   <g id="patch_80">
    <path d="M 372.796364 64.08 
L 375.84 64.08 
L 375.84 64.08 
L 372.796364 64.08 
z
" clip-path="url(#p7cfb0cf8fa)" style="stroke: #000000; stroke-linejoin: miter"/>
   </g>
   <g id="patch_81">
    <path d="M 375.84 64.08 
L 378.883636 64.08 
L 378.883636 64.08 
L 375.84 64.08 
z
" clip-path="url(#p7cfb0cf8fa)" style="stroke: #000000; stroke-linejoin: miter"/>
   </g>
   <g id="patch_82">
    <path d="M 378.883636 64.08 
L 381.927273 64.08 
L 381.927273 64.08 
L 378.883636 64.08 
z
" clip-path="url(#p7cfb0cf8fa)" style="stroke: #000000; stroke-linejoin: miter"/>
   </g>
   <g id="patch_83">
    <path d="M 381.927273 64.08 
L 384.970909 64.08 
L 384.970909 59.68 
L 381.927273 59.68 
z
" clip-path="url(#p7cfb0cf8fa)" style="stroke: #000000; stroke-linejoin: miter"/>
   </g>
   <g id="patch_84">
    <path d="M 384.970909 64.08 
L 388.014545 64.08 
L 388.014545 64.08 
L 384.970909 64.08 
z
" clip-path="url(#p7cfb0cf8fa)" style="stroke: #000000; stroke-linejoin: miter"/>
   </g>
   <g id="patch_85">
    <path d="M 388.014545 64.08 
L 391.058182 64.08 
L 391.058182 42.08 
L 388.014545 42.08 
z
" clip-path="url(#p7cfb0cf8fa)" style="stroke: #000000; stroke-linejoin: miter"/>
   </g>
   <g id="patch_86">
    <path d="M 391.058182 64.08 
L 394.101818 64.08 
L 394.101818 64.08 
L 391.058182 64.08 
z
" clip-path="url(#p7cfb0cf8fa)" style="stroke: #000000; stroke-linejoin: miter"/>
   </g>
   <g id="patch_87">
    <path d="M 394.101818 64.08 
L 397.145455 64.08 
L 397.145455 24.48 
L 394.101818 24.48 
z
" clip-path="url(#p7cfb0cf8fa)" style="stroke: #000000; stroke-linejoin: miter"/>
   </g>
   <g id="patch_88">
    <path d="M 397.145455 64.08 
L 400.189091 64.08 
L 400.189091 64.08 
L 397.145455 64.08 
z
" clip-path="url(#p7cfb0cf8fa)" style="stroke: #000000; stroke-linejoin: miter"/>
   </g>
   <g id="patch_89">
    <path d="M 400.189091 64.08 
L 403.232727 64.08 
L 403.232727 64.08 
L 400.189091 64.08 
z
" clip-path="url(#p7cfb0cf8fa)" style="stroke: #000000; stroke-linejoin: miter"/>
   </g>
   <g id="patch_90">
    <path d="M 403.232727 64.08 
L 406.276364 64.08 
L 406.276364 59.68 
L 403.232727 59.68 
z
" clip-path="url(#p7cfb0cf8fa)" style="stroke: #000000; stroke-linejoin: miter"/>
   </g>
   <g id="patch_91">
    <path d="M 406.276364 64.08 
L 409.32 64.08 
L 409.32 59.68 
L 406.276364 59.68 
z
" clip-path="url(#p7cfb0cf8fa)" style="stroke: #000000; stroke-linejoin: miter"/>
   </g>
   <g id="patch_92">
    <path d="M 409.32 64.08 
L 412.363636 64.08 
L 412.363636 64.08 
L 409.32 64.08 
z
" clip-path="url(#p7cfb0cf8fa)" style="stroke: #000000; stroke-linejoin: miter"/>
   </g>
   <g id="patch_93">
    <path d="M 412.363636 64.08 
L 415.407273 64.08 
L 415.407273 59.68 
L 412.363636 59.68 
z
" clip-path="url(#p7cfb0cf8fa)" style="stroke: #000000; stroke-linejoin: miter"/>
   </g>
   <g id="patch_94">
    <path d="M 415.407273 64.08 
L 418.450909 64.08 
L 418.450909 64.08 
L 415.407273 64.08 
z
" clip-path="url(#p7cfb0cf8fa)" style="stroke: #000000; stroke-linejoin: miter"/>
   </g>
   <g id="patch_95">
    <path d="M 418.450909 64.08 
L 421.494545 64.08 
L 421.494545 55.28 
L 418.450909 55.28 
z
" clip-path="url(#p7cfb0cf8fa)" style="stroke: #000000; stroke-linejoin: miter"/>
   </g>
   <g id="patch_96">
    <path d="M 421.494545 64.08 
L 424.538182 64.08 
L 424.538182 64.08 
L 421.494545 64.08 
z
" clip-path="url(#p7cfb0cf8fa)" style="stroke: #000000; stroke-linejoin: miter"/>
   </g>
   <g id="patch_97">
    <path d="M 424.538182 64.08 
L 427.581818 64.08 
L 427.581818 64.08 
L 424.538182 64.08 
z
" clip-path="url(#p7cfb0cf8fa)" style="stroke: #000000; stroke-linejoin: miter"/>
   </g>
   <g id="patch_98">
    <path d="M 427.581818 64.08 
L 430.625455 64.08 
L 430.625455 64.08 
L 427.581818 64.08 
z
" clip-path="url(#p7cfb0cf8fa)" style="stroke: #000000; stroke-linejoin: miter"/>
   </g>
   <g id="patch_99">
    <path d="M 430.625455 64.08 
L 433.669091 64.08 
L 433.669091 50.88 
L 430.625455 50.88 
z
" clip-path="url(#p7cfb0cf8fa)" style="stroke: #000000; stroke-linejoin: miter"/>
   </g>
   <g id="patch_100">
    <path d="M 433.669091 64.08 
L 436.712727 64.08 
L 436.712727 64.08 
L 433.669091 64.08 
z
" clip-path="url(#p7cfb0cf8fa)" style="stroke: #000000; stroke-linejoin: miter"/>
   </g>
   <g id="patch_101">
    <path d="M 436.712727 64.08 
L 439.756364 64.08 
L 439.756364 64.08 
L 436.712727 64.08 
z
" clip-path="url(#p7cfb0cf8fa)" style="stroke: #000000; stroke-linejoin: miter"/>
   </g>
   <g id="patch_102">
    <path d="M 439.756364 64.08 
L 442.8 64.08 
L 442.8 64.08 
L 439.756364 64.08 
z
" clip-path="url(#p7cfb0cf8fa)" style="stroke: #000000; stroke-linejoin: miter"/>
   </g>
   <g id="patch_103">
    <path d="M 442.8 64.08 
L 445.843636 64.08 
L 445.843636 64.08 
L 442.8 64.08 
z
" clip-path="url(#p7cfb0cf8fa)" style="stroke: #000000; stroke-linejoin: miter"/>
   </g>
   <g id="patch_104">
    <path d="M 445.843636 64.08 
L 448.887273 64.08 
L 448.887273 64.08 
L 445.843636 64.08 
z
" clip-path="url(#p7cfb0cf8fa)" style="stroke: #000000; stroke-linejoin: miter"/>
   </g>
   <g id="patch_105">
    <path d="M 448.887273 64.08 
L 451.930909 64.08 
L 451.930909 64.08 
L 448.887273 64.08 
z
" clip-path="url(#p7cfb0cf8fa)" style="stroke: #000000; stroke-linejoin: miter"/>
   </g>
   <g id="patch_106">
    <path d="M 451.930909 64.08 
L 454.974545 64.08 
L 454.974545 59.68 
L 451.930909 59.68 
z
" clip-path="url(#p7cfb0cf8fa)" style="stroke: #000000; stroke-linejoin: miter"/>
   </g>
   <g id="patch_107">
    <path d="M 454.974545 64.08 
L 458.018182 64.08 
L 458.018182 64.08 
L 454.974545 64.08 
z
" clip-path="url(#p7cfb0cf8fa)" style="stroke: #000000; stroke-linejoin: miter"/>
   </g>
   <g id="patch_108">
    <path d="M 458.018182 64.08 
L 461.061818 64.08 
L 461.061818 59.68 
L 458.018182 59.68 
z
" clip-path="url(#p7cfb0cf8fa)" style="stroke: #000000; stroke-linejoin: miter"/>
   </g>
   <g id="patch_109">
    <path d="M 461.061818 64.08 
L 464.105455 64.08 
L 464.105455 64.08 
L 461.061818 64.08 
z
" clip-path="url(#p7cfb0cf8fa)" style="stroke: #000000; stroke-linejoin: miter"/>
   </g>
   <g id="patch_110">
    <path d="M 464.105455 64.08 
L 467.149091 64.08 
L 467.149091 59.68 
L 464.105455 59.68 
z
" clip-path="url(#p7cfb0cf8fa)" style="stroke: #000000; stroke-linejoin: miter"/>
   </g>
   <g id="patch_111">
    <path d="M 467.149091 64.08 
L 470.192727 64.08 
L 470.192727 59.68 
L 467.149091 59.68 
z
" clip-path="url(#p7cfb0cf8fa)" style="stroke: #000000; stroke-linejoin: miter"/>
   </g>
   <g id="patch_112">
    <path d="M 470.192727 64.08 
L 473.236364 64.08 
L 473.236364 64.08 
L 470.192727 64.08 
z
" clip-path="url(#p7cfb0cf8fa)" style="stroke: #000000; stroke-linejoin: miter"/>
   </g>
   <g id="patch_113">
    <path d="M 473.236364 64.08 
L 476.28 64.08 
L 476.28 64.08 
L 473.236364 64.08 
z
" clip-path="url(#p7cfb0cf8fa)" style="stroke: #000000; stroke-linejoin: miter"/>
   </g>
   <g id="patch_114">
    <path d="M 476.28 64.08 
L 479.323636 64.08 
L 479.323636 64.08 
L 476.28 64.08 
z
" clip-path="url(#p7cfb0cf8fa)" style="stroke: #000000; stroke-linejoin: miter"/>
   </g>
   <g id="patch_115">
    <path d="M 479.323636 64.08 
L 482.367273 64.08 
L 482.367273 64.08 
L 479.323636 64.08 
z
" clip-path="url(#p7cfb0cf8fa)" style="stroke: #000000; stroke-linejoin: miter"/>
   </g>
   <g id="patch_116">
    <path d="M 482.367273 64.08 
L 485.410909 64.08 
L 485.410909 64.08 
L 482.367273 64.08 
z
" clip-path="url(#p7cfb0cf8fa)" style="stroke: #000000; stroke-linejoin: miter"/>
   </g>
   <g id="patch_117">
    <path d="M 485.410909 64.08 
L 488.454545 64.08 
L 488.454545 64.08 
L 485.410909 64.08 
z
" clip-path="url(#p7cfb0cf8fa)" style="stroke: #000000; stroke-linejoin: miter"/>
   </g>
   <g id="patch_118">
    <path d="M 488.454545 64.08 
L 491.498182 64.08 
L 491.498182 59.68 
L 488.454545 59.68 
z
" clip-path="url(#p7cfb0cf8fa)" style="stroke: #000000; stroke-linejoin: miter"/>
   </g>
   <g id="patch_119">
    <path d="M 491.498182 64.08 
L 494.541818 64.08 
L 494.541818 64.08 
L 491.498182 64.08 
z
" clip-path="url(#p7cfb0cf8fa)" style="stroke: #000000; stroke-linejoin: miter"/>
   </g>
   <g id="patch_120">
    <path d="M 494.541818 64.08 
L 497.585455 64.08 
L 497.585455 64.08 
L 494.541818 64.08 
z
" clip-path="url(#p7cfb0cf8fa)" style="stroke: #000000; stroke-linejoin: miter"/>
   </g>
   <g id="patch_121">
    <path d="M 497.585455 64.08 
L 500.629091 64.08 
L 500.629091 64.08 
L 497.585455 64.08 
z
" clip-path="url(#p7cfb0cf8fa)" style="stroke: #000000; stroke-linejoin: miter"/>
   </g>
   <g id="patch_122">
    <path d="M 500.629091 64.08 
L 503.672727 64.08 
L 503.672727 59.68 
L 500.629091 59.68 
z
" clip-path="url(#p7cfb0cf8fa)" style="stroke: #000000; stroke-linejoin: miter"/>
   </g>
   <g id="patch_123">
    <path d="M 503.672727 64.08 
L 506.716364 64.08 
L 506.716364 59.68 
L 503.672727 59.68 
z
" clip-path="url(#p7cfb0cf8fa)" style="stroke: #000000; stroke-linejoin: miter"/>
   </g>
   <g id="patch_124">
    <path d="M 506.716364 64.08 
L 509.76 64.08 
L 509.76 64.08 
L 506.716364 64.08 
z
" clip-path="url(#p7cfb0cf8fa)" style="stroke: #000000; stroke-linejoin: miter"/>
   </g>
   <g id="patch_125">
    <path d="M 509.76 64.08 
L 512.803636 64.08 
L 512.803636 64.08 
L 509.76 64.08 
z
" clip-path="url(#p7cfb0cf8fa)" style="stroke: #000000; stroke-linejoin: miter"/>
   </g>
   <g id="patch_126">
    <path d="M 512.803636 64.08 
L 515.847273 64.08 
L 515.847273 64.08 
L 512.803636 64.08 
z
" clip-path="url(#p7cfb0cf8fa)" style="stroke: #000000; stroke-linejoin: miter"/>
   </g>
   <g id="patch_127">
    <path d="M 515.847273 64.08 
L 518.890909 64.08 
L 518.890909 64.08 
L 515.847273 64.08 
z
" clip-path="url(#p7cfb0cf8fa)" style="stroke: #000000; stroke-linejoin: miter"/>
   </g>
   <g id="patch_128">
    <path d="M 518.890909 64.08 
L 521.934545 64.08 
L 521.934545 64.08 
L 518.890909 64.08 
z
" clip-path="url(#p7cfb0cf8fa)" style="stroke: #000000; stroke-linejoin: miter"/>
   </g>
   <g id="patch_129">
    <path d="M 521.934545 64.08 
L 524.978182 64.08 
L 524.978182 64.08 
L 521.934545 64.08 
z
" clip-path="url(#p7cfb0cf8fa)" style="stroke: #000000; stroke-linejoin: miter"/>
   </g>
   <g id="patch_130">
    <path d="M 524.978182 64.08 
L 528.021818 64.08 
L 528.021818 64.08 
L 524.978182 64.08 
z
" clip-path="url(#p7cfb0cf8fa)" style="stroke: #000000; stroke-linejoin: miter"/>
   </g>
   <g id="patch_131">
    <path d="M 528.021818 64.08 
L 531.065455 64.08 
L 531.065455 64.08 
L 528.021818 64.08 
z
" clip-path="url(#p7cfb0cf8fa)" style="stroke: #000000; stroke-linejoin: miter"/>
   </g>
   <g id="patch_132">
    <path d="M 531.065455 64.08 
L 534.109091 64.08 
L 534.109091 64.08 
L 531.065455 64.08 
z
" clip-path="url(#p7cfb0cf8fa)" style="stroke: #000000; stroke-linejoin: miter"/>
   </g>
   <g id="patch_133">
    <path d="M 534.109091 64.08 
L 537.152727 64.08 
L 537.152727 64.08 
L 534.109091 64.08 
z
" clip-path="url(#p7cfb0cf8fa)" style="stroke: #000000; stroke-linejoin: miter"/>
   </g>
   <g id="patch_134">
    <path d="M 537.152727 64.08 
L 540.196364 64.08 
L 540.196364 64.08 
L 537.152727 64.08 
z
" clip-path="url(#p7cfb0cf8fa)" style="stroke: #000000; stroke-linejoin: miter"/>
   </g>
   <g id="patch_135">
    <path d="M 540.196364 64.08 
L 543.24 64.08 
L 543.24 59.68 
L 540.196364 59.68 
z
" clip-path="url(#p7cfb0cf8fa)" style="stroke: #000000; stroke-linejoin: miter"/>
   </g>
   <g id="patch_136">
    <path d="M 543.24 64.08 
L 546.283636 64.08 
L 546.283636 64.08 
L 543.24 64.08 
z
" clip-path="url(#p7cfb0cf8fa)" style="stroke: #000000; stroke-linejoin: miter"/>
   </g>
   <g id="patch_137">
    <path d="M 546.283636 64.08 
L 549.327273 64.08 
L 549.327273 64.08 
L 546.283636 64.08 
z
" clip-path="url(#p7cfb0cf8fa)" style="stroke: #000000; stroke-linejoin: miter"/>
   </g>
   <g id="patch_138">
    <path d="M 549.327273 64.08 
L 552.370909 64.08 
L 552.370909 55.28 
L 549.327273 55.28 
z
" clip-path="url(#p7cfb0cf8fa)" style="stroke: #000000; stroke-linejoin: miter"/>
   </g>
   <g id="patch_139">
    <path d="M 552.370909 64.08 
L 555.414545 64.08 
L 555.414545 50.88 
L 552.370909 50.88 
z
" clip-path="url(#p7cfb0cf8fa)" style="stroke: #000000; stroke-linejoin: miter"/>
   </g>
   <g id="patch_140">
    <path d="M 555.414545 64.08 
L 558.458182 64.08 
L 558.458182 64.08 
L 555.414545 64.08 
z
" clip-path="url(#p7cfb0cf8fa)" style="stroke: #000000; stroke-linejoin: miter"/>
   </g>
   <g id="patch_141">
    <path d="M 558.458182 64.08 
L 561.501818 64.08 
L 561.501818 64.08 
L 558.458182 64.08 
z
" clip-path="url(#p7cfb0cf8fa)" style="stroke: #000000; stroke-linejoin: miter"/>
   </g>
   <g id="patch_142">
    <path d="M 561.501818 64.08 
L 564.545455 64.08 
L 564.545455 64.08 
L 561.501818 64.08 
z
" clip-path="url(#p7cfb0cf8fa)" style="stroke: #000000; stroke-linejoin: miter"/>
   </g>
   <g id="patch_143">
    <path d="M 564.545455 64.08 
L 567.589091 64.08 
L 567.589091 64.08 
L 564.545455 64.08 
z
" clip-path="url(#p7cfb0cf8fa)" style="stroke: #000000; stroke-linejoin: miter"/>
   </g>
   <g id="patch_144">
    <path d="M 567.589091 64.08 
L 570.632727 64.08 
L 570.632727 64.08 
L 567.589091 64.08 
z
" clip-path="url(#p7cfb0cf8fa)" style="stroke: #000000; stroke-linejoin: miter"/>
   </g>
   <g id="patch_145">
    <path d="M 570.632727 64.08 
L 573.676364 64.08 
L 573.676364 64.08 
L 570.632727 64.08 
z
" clip-path="url(#p7cfb0cf8fa)" style="stroke: #000000; stroke-linejoin: miter"/>
   </g>
   <g id="patch_146">
    <path d="M 573.676364 64.08 
L 576.72 64.08 
L 576.72 64.08 
L 573.676364 64.08 
z
" clip-path="url(#p7cfb0cf8fa)" style="stroke: #000000; stroke-linejoin: miter"/>
   </g>
   <g id="patch_147">
    <path d="M 576.72 64.08 
L 579.763636 64.08 
L 579.763636 64.08 
L 576.72 64.08 
z
" clip-path="url(#p7cfb0cf8fa)" style="stroke: #000000; stroke-linejoin: miter"/>
   </g>
   <g id="patch_148">
    <path d="M 579.763636 64.08 
L 582.807273 64.08 
L 582.807273 64.08 
L 579.763636 64.08 
z
" clip-path="url(#p7cfb0cf8fa)" style="stroke: #000000; stroke-linejoin: miter"/>
   </g>
   <g id="patch_149">
    <path d="M 582.807273 64.08 
L 585.850909 64.08 
L 585.850909 64.08 
L 582.807273 64.08 
z
" clip-path="url(#p7cfb0cf8fa)" style="stroke: #000000; stroke-linejoin: miter"/>
   </g>
   <g id="patch_150">
    <path d="M 585.850909 64.08 
L 588.894545 64.08 
L 588.894545 64.08 
L 585.850909 64.08 
z
" clip-path="url(#p7cfb0cf8fa)" style="stroke: #000000; stroke-linejoin: miter"/>
   </g>
   <g id="patch_151">
    <path d="M 588.894545 64.08 
L 591.938182 64.08 
L 591.938182 64.08 
L 588.894545 64.08 
z
" clip-path="url(#p7cfb0cf8fa)" style="stroke: #000000; stroke-linejoin: miter"/>
   </g>
   <g id="patch_152">
    <path d="M 591.938182 64.08 
L 594.981818 64.08 
L 594.981818 64.08 
L 591.938182 64.08 
z
" clip-path="url(#p7cfb0cf8fa)" style="stroke: #000000; stroke-linejoin: miter"/>
   </g>
   <g id="patch_153">
    <path d="M 594.981818 64.08 
L 598.025455 64.08 
L 598.025455 64.08 
L 594.981818 64.08 
z
" clip-path="url(#p7cfb0cf8fa)" style="stroke: #000000; stroke-linejoin: miter"/>
   </g>
   <g id="patch_154">
    <path d="M 598.025455 64.08 
L 601.069091 64.08 
L 601.069091 64.08 
L 598.025455 64.08 
z
" clip-path="url(#p7cfb0cf8fa)" style="stroke: #000000; stroke-linejoin: miter"/>
   </g>
   <g id="patch_155">
    <path d="M 601.069091 64.08 
L 604.112727 64.08 
L 604.112727 59.68 
L 601.069091 59.68 
z
" clip-path="url(#p7cfb0cf8fa)" style="stroke: #000000; stroke-linejoin: miter"/>
   </g>
   <g id="patch_156">
    <path d="M 604.112727 64.08 
L 607.156364 64.08 
L 607.156364 64.08 
L 604.112727 64.08 
z
" clip-path="url(#p7cfb0cf8fa)" style="stroke: #000000; stroke-linejoin: miter"/>
   </g>
   <g id="patch_157">
    <path d="M 607.156364 64.08 
L 610.2 64.08 
L 610.2 64.08 
L 607.156364 64.08 
z
" clip-path="url(#p7cfb0cf8fa)" style="stroke: #000000; stroke-linejoin: miter"/>
   </g>
   <g id="patch_158">
    <path d="M 610.2 64.08 
L 613.243636 64.08 
L 613.243636 64.08 
L 610.2 64.08 
z
" clip-path="url(#p7cfb0cf8fa)" style="stroke: #000000; stroke-linejoin: miter"/>
   </g>
   <g id="patch_159">
    <path d="M 613.243636 64.08 
L 616.287273 64.08 
L 616.287273 64.08 
L 613.243636 64.08 
z
" clip-path="url(#p7cfb0cf8fa)" style="stroke: #000000; stroke-linejoin: miter"/>
   </g>
   <g id="patch_160">
    <path d="M 616.287273 64.08 
L 619.330909 64.08 
L 619.330909 59.68 
L 616.287273 59.68 
z
" clip-path="url(#p7cfb0cf8fa)" style="stroke: #000000; stroke-linejoin: miter"/>
   </g>
   <g id="patch_161">
    <path d="M 619.330909 64.08 
L 622.374545 64.08 
L 622.374545 59.68 
L 619.330909 59.68 
z
" clip-path="url(#p7cfb0cf8fa)" style="stroke: #000000; stroke-linejoin: miter"/>
   </g>
   <g id="patch_162">
    <path d="M 622.374545 64.08 
L 625.418182 64.08 
L 625.418182 64.08 
L 622.374545 64.08 
z
" clip-path="url(#p7cfb0cf8fa)" style="stroke: #000000; stroke-linejoin: miter"/>
   </g>
   <g id="patch_163">
    <path d="M 625.418182 64.08 
L 628.461818 64.08 
L 628.461818 59.68 
L 625.418182 59.68 
z
" clip-path="url(#p7cfb0cf8fa)" style="stroke: #000000; stroke-linejoin: miter"/>
   </g>
   <g id="patch_164">
    <path d="M 628.461818 64.08 
L 631.505455 64.08 
L 631.505455 64.08 
L 628.461818 64.08 
z
" clip-path="url(#p7cfb0cf8fa)" style="stroke: #000000; stroke-linejoin: miter"/>
   </g>
   <g id="patch_165">
    <path d="M 631.505455 64.08 
L 634.549091 64.08 
L 634.549091 64.08 
L 631.505455 64.08 
z
" clip-path="url(#p7cfb0cf8fa)" style="stroke: #000000; stroke-linejoin: miter"/>
   </g>
   <g id="patch_166">
    <path d="M 634.549091 64.08 
L 637.592727 64.08 
L 637.592727 64.08 
L 634.549091 64.08 
z
" clip-path="url(#p7cfb0cf8fa)" style="stroke: #000000; stroke-linejoin: miter"/>
   </g>
   <g id="patch_167">
    <path d="M 637.592727 64.08 
L 640.636364 64.08 
L 640.636364 64.08 
L 637.592727 64.08 
z
" clip-path="url(#p7cfb0cf8fa)" style="stroke: #000000; stroke-linejoin: miter"/>
   </g>
   <g id="patch_168">
    <path d="M 640.636364 64.08 
L 643.68 64.08 
L 643.68 64.08 
L 640.636364 64.08 
z
" clip-path="url(#p7cfb0cf8fa)" style="stroke: #000000; stroke-linejoin: miter"/>
   </g>
   <g id="patch_169">
    <path d="M 643.68 64.08 
L 646.723636 64.08 
L 646.723636 64.08 
L 643.68 64.08 
z
" clip-path="url(#p7cfb0cf8fa)" style="stroke: #000000; stroke-linejoin: miter"/>
   </g>
   <g id="patch_170">
    <path d="M 646.723636 64.08 
L 649.767273 64.08 
L 649.767273 64.08 
L 646.723636 64.08 
z
" clip-path="url(#p7cfb0cf8fa)" style="stroke: #000000; stroke-linejoin: miter"/>
   </g>
   <g id="patch_171">
    <path d="M 649.767273 64.08 
L 652.810909 64.08 
L 652.810909 64.08 
L 649.767273 64.08 
z
" clip-path="url(#p7cfb0cf8fa)" style="stroke: #000000; stroke-linejoin: miter"/>
   </g>
   <g id="patch_172">
    <path d="M 652.810909 64.08 
L 655.854545 64.08 
L 655.854545 50.88 
L 652.810909 50.88 
z
" clip-path="url(#p7cfb0cf8fa)" style="stroke: #000000; stroke-linejoin: miter"/>
   </g>
   <g id="patch_173">
    <path d="M 655.854545 64.08 
L 658.898182 64.08 
L 658.898182 64.08 
L 655.854545 64.08 
z
" clip-path="url(#p7cfb0cf8fa)" style="stroke: #000000; stroke-linejoin: miter"/>
   </g>
   <g id="patch_174">
    <path d="M 658.898182 64.08 
L 661.941818 64.08 
L 661.941818 64.08 
L 658.898182 64.08 
z
" clip-path="url(#p7cfb0cf8fa)" style="stroke: #000000; stroke-linejoin: miter"/>
   </g>
   <g id="patch_175">
    <path d="M 661.941818 64.08 
L 664.985455 64.08 
L 664.985455 64.08 
L 661.941818 64.08 
z
" clip-path="url(#p7cfb0cf8fa)" style="stroke: #000000; stroke-linejoin: miter"/>
   </g>
   <g id="patch_176">
    <path d="M 664.985455 64.08 
L 668.029091 64.08 
L 668.029091 64.08 
L 664.985455 64.08 
z
" clip-path="url(#p7cfb0cf8fa)" style="stroke: #000000; stroke-linejoin: miter"/>
   </g>
   <g id="patch_177">
    <path d="M 668.029091 64.08 
L 671.072727 64.08 
L 671.072727 64.08 
L 668.029091 64.08 
z
" clip-path="url(#p7cfb0cf8fa)" style="stroke: #000000; stroke-linejoin: miter"/>
   </g>
   <g id="patch_178">
    <path d="M 671.072727 64.08 
L 674.116364 64.08 
L 674.116364 64.08 
L 671.072727 64.08 
z
" clip-path="url(#p7cfb0cf8fa)" style="stroke: #000000; stroke-linejoin: miter"/>
   </g>
   <g id="patch_179">
    <path d="M 674.116364 64.08 
L 677.16 64.08 
L 677.16 64.08 
L 674.116364 64.08 
z
" clip-path="url(#p7cfb0cf8fa)" style="stroke: #000000; stroke-linejoin: miter"/>
   </g>
   <g id="patch_180">
    <path d="M 677.16 64.08 
L 680.203636 64.08 
L 680.203636 64.08 
L 677.16 64.08 
z
" clip-path="url(#p7cfb0cf8fa)" style="stroke: #000000; stroke-linejoin: miter"/>
   </g>
   <g id="patch_181">
    <path d="M 680.203636 64.08 
L 683.247273 64.08 
L 683.247273 59.68 
L 680.203636 59.68 
z
" clip-path="url(#p7cfb0cf8fa)" style="stroke: #000000; stroke-linejoin: miter"/>
   </g>
   <g id="patch_182">
    <path d="M 683.247273 64.08 
L 686.290909 64.08 
L 686.290909 64.08 
L 683.247273 64.08 
z
" clip-path="url(#p7cfb0cf8fa)" style="stroke: #000000; stroke-linejoin: miter"/>
   </g>
   <g id="patch_183">
    <path d="M 686.290909 64.08 
L 689.334545 64.08 
L 689.334545 64.08 
L 686.290909 64.08 
z
" clip-path="url(#p7cfb0cf8fa)" style="stroke: #000000; stroke-linejoin: miter"/>
   </g>
   <g id="patch_184">
    <path d="M 689.334545 64.08 
L 692.378182 64.08 
L 692.378182 64.08 
L 689.334545 64.08 
z
" clip-path="url(#p7cfb0cf8fa)" style="stroke: #000000; stroke-linejoin: miter"/>
   </g>
   <g id="patch_185">
    <path d="M 692.378182 64.08 
L 695.421818 64.08 
L 695.421818 59.68 
L 692.378182 59.68 
z
" clip-path="url(#p7cfb0cf8fa)" style="stroke: #000000; stroke-linejoin: miter"/>
   </g>
   <g id="patch_186">
    <path d="M 695.421818 64.08 
L 698.465455 64.08 
L 698.465455 64.08 
L 695.421818 64.08 
z
" clip-path="url(#p7cfb0cf8fa)" style="stroke: #000000; stroke-linejoin: miter"/>
   </g>
   <g id="patch_187">
    <path d="M 698.465455 64.08 
L 701.509091 64.08 
L 701.509091 64.08 
L 698.465455 64.08 
z
" clip-path="url(#p7cfb0cf8fa)" style="stroke: #000000; stroke-linejoin: miter"/>
   </g>
   <g id="patch_188">
    <path d="M 701.509091 64.08 
L 704.552727 64.08 
L 704.552727 64.08 
L 701.509091 64.08 
z
" clip-path="url(#p7cfb0cf8fa)" style="stroke: #000000; stroke-linejoin: miter"/>
   </g>
   <g id="patch_189">
    <path d="M 704.552727 64.08 
L 707.596364 64.08 
L 707.596364 64.08 
L 704.552727 64.08 
z
" clip-path="url(#p7cfb0cf8fa)" style="stroke: #000000; stroke-linejoin: miter"/>
   </g>
   <g id="patch_190">
    <path d="M 707.596364 64.08 
L 710.64 64.08 
L 710.64 64.08 
L 707.596364 64.08 
z
" clip-path="url(#p7cfb0cf8fa)" style="stroke: #000000; stroke-linejoin: miter"/>
   </g>
   <g id="patch_191">
    <path d="M 710.64 64.08 
L 713.683636 64.08 
L 713.683636 64.08 
L 710.64 64.08 
z
" clip-path="url(#p7cfb0cf8fa)" style="stroke: #000000; stroke-linejoin: miter"/>
   </g>
   <g id="patch_192">
    <path d="M 713.683636 64.08 
L 716.727273 64.08 
L 716.727273 64.08 
L 713.683636 64.08 
z
" clip-path="url(#p7cfb0cf8fa)" style="stroke: #000000; stroke-linejoin: miter"/>
   </g>
   <g id="patch_193">
    <path d="M 716.727273 64.08 
L 719.770909 64.08 
L 719.770909 64.08 
L 716.727273 64.08 
z
" clip-path="url(#p7cfb0cf8fa)" style="stroke: #000000; stroke-linejoin: miter"/>
   </g>
   <g id="patch_194">
    <path d="M 719.770909 64.08 
L 722.814545 64.08 
L 722.814545 64.08 
L 719.770909 64.08 
z
" clip-path="url(#p7cfb0cf8fa)" style="stroke: #000000; stroke-linejoin: miter"/>
   </g>
   <g id="patch_195">
    <path d="M 722.814545 64.08 
L 725.858182 64.08 
L 725.858182 64.08 
L 722.814545 64.08 
z
" clip-path="url(#p7cfb0cf8fa)" style="stroke: #000000; stroke-linejoin: miter"/>
   </g>
   <g id="patch_196">
    <path d="M 725.858182 64.08 
L 728.901818 64.08 
L 728.901818 64.08 
L 725.858182 64.08 
z
" clip-path="url(#p7cfb0cf8fa)" style="stroke: #000000; stroke-linejoin: miter"/>
   </g>
   <g id="patch_197">
    <path d="M 728.901818 64.08 
L 731.945455 64.08 
L 731.945455 64.08 
L 728.901818 64.08 
z
" clip-path="url(#p7cfb0cf8fa)" style="stroke: #000000; stroke-linejoin: miter"/>
   </g>
   <g id="patch_198">
    <path d="M 731.945455 64.08 
L 734.989091 64.08 
L 734.989091 64.08 
L 731.945455 64.08 
z
" clip-path="url(#p7cfb0cf8fa)" style="stroke: #000000; stroke-linejoin: miter"/>
   </g>
   <g id="patch_199">
    <path d="M 734.989091 64.08 
L 738.032727 64.08 
L 738.032727 64.08 
L 734.989091 64.08 
z
" clip-path="url(#p7cfb0cf8fa)" style="stroke: #000000; stroke-linejoin: miter"/>
   </g>
   <g id="patch_200">
    <path d="M 738.032727 64.08 
L 741.076364 64.08 
L 741.076364 64.08 
L 738.032727 64.08 
z
" clip-path="url(#p7cfb0cf8fa)" style="stroke: #000000; stroke-linejoin: miter"/>
   </g>
   <g id="patch_201">
    <path d="M 741.076364 64.08 
L 744.12 64.08 
L 744.12 64.08 
L 741.076364 64.08 
z
" clip-path="url(#p7cfb0cf8fa)" style="stroke: #000000; stroke-linejoin: miter"/>
   </g>
   <g id="patch_202">
    <path d="M 744.12 64.08 
L 747.163636 64.08 
L 747.163636 64.08 
L 744.12 64.08 
z
" clip-path="url(#p7cfb0cf8fa)" style="stroke: #000000; stroke-linejoin: miter"/>
   </g>
   <g id="matplotlib.axis_1">
    <g id="xtick_1">
     <g id="line2d_1">
      <defs>
       <path id="m94435ff748" d="M 0 0 
L 0 3.5 
" style="stroke: #000000; stroke-width: 0.8"/>
      </defs>
      <g>
       <use xlink:href="#m94435ff748" x="138.436364" y="64.08" style="stroke: #000000; stroke-width: 0.8"/>
      </g>
     </g>
     <g id="text_1">
      <!-- 0 -->
      <g transform="translate(135.255114 78.678438) scale(0.1 -0.1)">
       <defs>
        <path id="DejaVuSans-30" d="M 2034 4250 
Q 1547 4250 1301 3770 
Q 1056 3291 1056 2328 
Q 1056 1369 1301 889 
Q 1547 409 2034 409 
Q 2525 409 2770 889 
Q 3016 1369 3016 2328 
Q 3016 3291 2770 3770 
Q 2525 4250 2034 4250 
z
M 2034 4750 
Q 2819 4750 3233 4129 
Q 3647 3509 3647 2328 
Q 3647 1150 3233 529 
Q 2819 -91 2034 -91 
Q 1250 -91 836 529 
Q 422 1150 422 2328 
Q 422 3509 836 4129 
Q 1250 4750 2034 4750 
z
" transform="scale(0.015625)"/>
       </defs>
       <use xlink:href="#DejaVuSans-30"/>
      </g>
     </g>
    </g>
    <g id="xtick_2">
     <g id="line2d_2">
      <g>
       <use xlink:href="#m94435ff748" x="219.062492" y="64.08" style="stroke: #000000; stroke-width: 0.8"/>
      </g>
     </g>
     <g id="text_2">
      <!-- 20 -->
      <g transform="translate(212.699992 78.678438) scale(0.1 -0.1)">
       <defs>
        <path id="DejaVuSans-32" d="M 1228 531 
L 3431 531 
L 3431 0 
L 469 0 
L 469 531 
Q 828 903 1448 1529 
Q 2069 2156 2228 2338 
Q 2531 2678 2651 2914 
Q 2772 3150 2772 3378 
Q 2772 3750 2511 3984 
Q 2250 4219 1831 4219 
Q 1534 4219 1204 4116 
Q 875 4013 500 3803 
L 500 4441 
Q 881 4594 1212 4672 
Q 1544 4750 1819 4750 
Q 2544 4750 2975 4387 
Q 3406 4025 3406 3419 
Q 3406 3131 3298 2873 
Q 3191 2616 2906 2266 
Q 2828 2175 2409 1742 
Q 1991 1309 1228 531 
z
" transform="scale(0.015625)"/>
       </defs>
       <use xlink:href="#DejaVuSans-32"/>
       <use xlink:href="#DejaVuSans-30" x="63.623047"/>
      </g>
     </g>
    </g>
    <g id="xtick_3">
     <g id="line2d_3">
      <g>
       <use xlink:href="#m94435ff748" x="299.688621" y="64.08" style="stroke: #000000; stroke-width: 0.8"/>
      </g>
     </g>
     <g id="text_3">
      <!-- 40 -->
      <g transform="translate(293.326121 78.678438) scale(0.1 -0.1)">
       <defs>
        <path id="DejaVuSans-34" d="M 2419 4116 
L 825 1625 
L 2419 1625 
L 2419 4116 
z
M 2253 4666 
L 3047 4666 
L 3047 1625 
L 3713 1625 
L 3713 1100 
L 3047 1100 
L 3047 0 
L 2419 0 
L 2419 1100 
L 313 1100 
L 313 1709 
L 2253 4666 
z
" transform="scale(0.015625)"/>
       </defs>
       <use xlink:href="#DejaVuSans-34"/>
       <use xlink:href="#DejaVuSans-30" x="63.623047"/>
      </g>
     </g>
    </g>
    <g id="xtick_4">
     <g id="line2d_4">
      <g>
       <use xlink:href="#m94435ff748" x="380.31475" y="64.08" style="stroke: #000000; stroke-width: 0.8"/>
      </g>
     </g>
     <g id="text_4">
      <!-- 60 -->
      <g transform="translate(373.95225 78.678438) scale(0.1 -0.1)">
       <defs>
        <path id="DejaVuSans-36" d="M 2113 2584 
Q 1688 2584 1439 2293 
Q 1191 2003 1191 1497 
Q 1191 994 1439 701 
Q 1688 409 2113 409 
Q 2538 409 2786 701 
Q 3034 994 3034 1497 
Q 3034 2003 2786 2293 
Q 2538 2584 2113 2584 
z
M 3366 4563 
L 3366 3988 
Q 3128 4100 2886 4159 
Q 2644 4219 2406 4219 
Q 1781 4219 1451 3797 
Q 1122 3375 1075 2522 
Q 1259 2794 1537 2939 
Q 1816 3084 2150 3084 
Q 2853 3084 3261 2657 
Q 3669 2231 3669 1497 
Q 3669 778 3244 343 
Q 2819 -91 2113 -91 
Q 1303 -91 875 529 
Q 447 1150 447 2328 
Q 447 3434 972 4092 
Q 1497 4750 2381 4750 
Q 2619 4750 2861 4703 
Q 3103 4656 3366 4563 
z
" transform="scale(0.015625)"/>
       </defs>
       <use xlink:href="#DejaVuSans-36"/>
       <use xlink:href="#DejaVuSans-30" x="63.623047"/>
      </g>
     </g>
    </g>
    <g id="xtick_5">
     <g id="line2d_5">
      <g>
       <use xlink:href="#m94435ff748" x="460.940879" y="64.08" style="stroke: #000000; stroke-width: 0.8"/>
      </g>
     </g>
     <g id="text_5">
      <!-- 80 -->
      <g transform="translate(454.578379 78.678438) scale(0.1 -0.1)">
       <defs>
        <path id="DejaVuSans-38" d="M 2034 2216 
Q 1584 2216 1326 1975 
Q 1069 1734 1069 1313 
Q 1069 891 1326 650 
Q 1584 409 2034 409 
Q 2484 409 2743 651 
Q 3003 894 3003 1313 
Q 3003 1734 2745 1975 
Q 2488 2216 2034 2216 
z
M 1403 2484 
Q 997 2584 770 2862 
Q 544 3141 544 3541 
Q 544 4100 942 4425 
Q 1341 4750 2034 4750 
Q 2731 4750 3128 4425 
Q 3525 4100 3525 3541 
Q 3525 3141 3298 2862 
Q 3072 2584 2669 2484 
Q 3125 2378 3379 2068 
Q 3634 1759 3634 1313 
Q 3634 634 3220 271 
Q 2806 -91 2034 -91 
Q 1263 -91 848 271 
Q 434 634 434 1313 
Q 434 1759 690 2068 
Q 947 2378 1403 2484 
z
M 1172 3481 
Q 1172 3119 1398 2916 
Q 1625 2713 2034 2713 
Q 2441 2713 2670 2916 
Q 2900 3119 2900 3481 
Q 2900 3844 2670 4047 
Q 2441 4250 2034 4250 
Q 1625 4250 1398 4047 
Q 1172 3844 1172 3481 
z
" transform="scale(0.015625)"/>
       </defs>
       <use xlink:href="#DejaVuSans-38"/>
       <use xlink:href="#DejaVuSans-30" x="63.623047"/>
      </g>
     </g>
    </g>
    <g id="xtick_6">
     <g id="line2d_6">
      <g>
       <use xlink:href="#m94435ff748" x="541.567008" y="64.08" style="stroke: #000000; stroke-width: 0.8"/>
      </g>
     </g>
     <g id="text_6">
      <!-- 100 -->
      <g transform="translate(532.023258 78.678438) scale(0.1 -0.1)">
       <defs>
        <path id="DejaVuSans-31" d="M 794 531 
L 1825 531 
L 1825 4091 
L 703 3866 
L 703 4441 
L 1819 4666 
L 2450 4666 
L 2450 531 
L 3481 531 
L 3481 0 
L 794 0 
L 794 531 
z
" transform="scale(0.015625)"/>
       </defs>
       <use xlink:href="#DejaVuSans-31"/>
       <use xlink:href="#DejaVuSans-30" x="63.623047"/>
       <use xlink:href="#DejaVuSans-30" x="127.246094"/>
      </g>
     </g>
    </g>
    <g id="xtick_7">
     <g id="line2d_7">
      <g>
       <use xlink:href="#m94435ff748" x="622.193137" y="64.08" style="stroke: #000000; stroke-width: 0.8"/>
      </g>
     </g>
     <g id="text_7">
      <!-- 120 -->
      <g transform="translate(612.649387 78.678438) scale(0.1 -0.1)">
       <use xlink:href="#DejaVuSans-31"/>
       <use xlink:href="#DejaVuSans-32" x="63.623047"/>
       <use xlink:href="#DejaVuSans-30" x="127.246094"/>
      </g>
     </g>
    </g>
    <g id="xtick_8">
     <g id="line2d_8">
      <g>
       <use xlink:href="#m94435ff748" x="702.819266" y="64.08" style="stroke: #000000; stroke-width: 0.8"/>
      </g>
     </g>
     <g id="text_8">
      <!-- 140 -->
      <g transform="translate(693.275516 78.678438) scale(0.1 -0.1)">
       <use xlink:href="#DejaVuSans-31"/>
       <use xlink:href="#DejaVuSans-34" x="63.623047"/>
       <use xlink:href="#DejaVuSans-30" x="127.246094"/>
      </g>
     </g>
    </g>
    <g id="text_9">
     <!-- u -->
     <g transform="translate(439.63125 92.356562) scale(0.1 -0.1)">
      <defs>
       <path id="DejaVuSans-75" d="M 544 1381 
L 544 3500 
L 1119 3500 
L 1119 1403 
Q 1119 906 1312 657 
Q 1506 409 1894 409 
Q 2359 409 2629 706 
Q 2900 1003 2900 1516 
L 2900 3500 
L 3475 3500 
L 3475 0 
L 2900 0 
L 2900 538 
Q 2691 219 2414 64 
Q 2138 -91 1772 -91 
Q 1169 -91 856 284 
Q 544 659 544 1381 
z
M 1991 3584 
L 1991 3584 
z
" transform="scale(0.015625)"/>
      </defs>
      <use xlink:href="#DejaVuSans-75"/>
     </g>
    </g>
   </g>
   <g id="matplotlib.axis_2">
    <g id="ytick_1">
     <g id="line2d_9">
      <defs>
       <path id="mb4bd2ffd02" d="M 0 0 
L -3.5 0 
" style="stroke: #000000; stroke-width: 0.8"/>
      </defs>
      <g>
       <use xlink:href="#mb4bd2ffd02" x="108" y="64.08" style="stroke: #000000; stroke-width: 0.8"/>
      </g>
     </g>
     <g id="text_10">
      <!-- 0 -->
      <g transform="translate(94.6375 67.879219) scale(0.1 -0.1)">
       <use xlink:href="#DejaVuSans-30"/>
      </g>
     </g>
    </g>
    <g id="ytick_2">
     <g id="line2d_10">
      <g>
       <use xlink:href="#mb4bd2ffd02" x="108" y="20.08" style="stroke: #000000; stroke-width: 0.8"/>
      </g>
     </g>
     <g id="text_11">
      <!-- 10 -->
      <g transform="translate(88.275 23.879219) scale(0.1 -0.1)">
       <use xlink:href="#DejaVuSans-31"/>
       <use xlink:href="#DejaVuSans-30" x="63.623047"/>
      </g>
     </g>
    </g>
    <g id="text_12">
     <!-- Frequency -->
     <g transform="translate(82.195312 62.189688) rotate(-90) scale(0.1 -0.1)">
      <defs>
       <path id="DejaVuSans-46" d="M 628 4666 
L 3309 4666 
L 3309 4134 
L 1259 4134 
L 1259 2759 
L 3109 2759 
L 3109 2228 
L 1259 2228 
L 1259 0 
L 628 0 
L 628 4666 
z
" transform="scale(0.015625)"/>
       <path id="DejaVuSans-72" d="M 2631 2963 
Q 2534 3019 2420 3045 
Q 2306 3072 2169 3072 
Q 1681 3072 1420 2755 
Q 1159 2438 1159 1844 
L 1159 0 
L 581 0 
L 581 3500 
L 1159 3500 
L 1159 2956 
Q 1341 3275 1631 3429 
Q 1922 3584 2338 3584 
Q 2397 3584 2469 3576 
Q 2541 3569 2628 3553 
L 2631 2963 
z
" transform="scale(0.015625)"/>
       <path id="DejaVuSans-65" d="M 3597 1894 
L 3597 1613 
L 953 1613 
Q 991 1019 1311 708 
Q 1631 397 2203 397 
Q 2534 397 2845 478 
Q 3156 559 3463 722 
L 3463 178 
Q 3153 47 2828 -22 
Q 2503 -91 2169 -91 
Q 1331 -91 842 396 
Q 353 884 353 1716 
Q 353 2575 817 3079 
Q 1281 3584 2069 3584 
Q 2775 3584 3186 3129 
Q 3597 2675 3597 1894 
z
M 3022 2063 
Q 3016 2534 2758 2815 
Q 2500 3097 2075 3097 
Q 1594 3097 1305 2825 
Q 1016 2553 972 2059 
L 3022 2063 
z
" transform="scale(0.015625)"/>
       <path id="DejaVuSans-71" d="M 947 1747 
Q 947 1113 1208 752 
Q 1469 391 1925 391 
Q 2381 391 2643 752 
Q 2906 1113 2906 1747 
Q 2906 2381 2643 2742 
Q 2381 3103 1925 3103 
Q 1469 3103 1208 2742 
Q 947 2381 947 1747 
z
M 2906 525 
Q 2725 213 2448 61 
Q 2172 -91 1784 -91 
Q 1150 -91 751 415 
Q 353 922 353 1747 
Q 353 2572 751 3078 
Q 1150 3584 1784 3584 
Q 2172 3584 2448 3432 
Q 2725 3281 2906 2969 
L 2906 3500 
L 3481 3500 
L 3481 -1331 
L 2906 -1331 
L 2906 525 
z
" transform="scale(0.015625)"/>
       <path id="DejaVuSans-6e" d="M 3513 2113 
L 3513 0 
L 2938 0 
L 2938 2094 
Q 2938 2591 2744 2837 
Q 2550 3084 2163 3084 
Q 1697 3084 1428 2787 
Q 1159 2491 1159 1978 
L 1159 0 
L 581 0 
L 581 3500 
L 1159 3500 
L 1159 2956 
Q 1366 3272 1645 3428 
Q 1925 3584 2291 3584 
Q 2894 3584 3203 3211 
Q 3513 2838 3513 2113 
z
" transform="scale(0.015625)"/>
       <path id="DejaVuSans-63" d="M 3122 3366 
L 3122 2828 
Q 2878 2963 2633 3030 
Q 2388 3097 2138 3097 
Q 1578 3097 1268 2742 
Q 959 2388 959 1747 
Q 959 1106 1268 751 
Q 1578 397 2138 397 
Q 2388 397 2633 464 
Q 2878 531 3122 666 
L 3122 134 
Q 2881 22 2623 -34 
Q 2366 -91 2075 -91 
Q 1284 -91 818 406 
Q 353 903 353 1747 
Q 353 2603 823 3093 
Q 1294 3584 2113 3584 
Q 2378 3584 2631 3529 
Q 2884 3475 3122 3366 
z
" transform="scale(0.015625)"/>
       <path id="DejaVuSans-79" d="M 2059 -325 
Q 1816 -950 1584 -1140 
Q 1353 -1331 966 -1331 
L 506 -1331 
L 506 -850 
L 844 -850 
Q 1081 -850 1212 -737 
Q 1344 -625 1503 -206 
L 1606 56 
L 191 3500 
L 800 3500 
L 1894 763 
L 2988 3500 
L 3597 3500 
L 2059 -325 
z
" transform="scale(0.015625)"/>
      </defs>
      <use xlink:href="#DejaVuSans-46"/>
      <use xlink:href="#DejaVuSans-72" x="50.269531"/>
      <use xlink:href="#DejaVuSans-65" x="89.132812"/>
      <use xlink:href="#DejaVuSans-71" x="150.65625"/>
      <use xlink:href="#DejaVuSans-75" x="214.132812"/>
      <use xlink:href="#DejaVuSans-65" x="277.511719"/>
      <use xlink:href="#DejaVuSans-6e" x="339.035156"/>
      <use xlink:href="#DejaVuSans-63" x="402.414062"/>
      <use xlink:href="#DejaVuSans-79" x="457.394531"/>
     </g>
    </g>
   </g>
   <g id="patch_203">
    <path d="M 108 64.08 
L 108 8.64 
" style="fill: none; stroke: #000000; stroke-width: 0.8; stroke-linejoin: miter; stroke-linecap: square"/>
   </g>
   <g id="patch_204">
    <path d="M 777.6 64.08 
L 777.6 8.64 
" style="fill: none; stroke: #000000; stroke-width: 0.8; stroke-linejoin: miter; stroke-linecap: square"/>
   </g>
   <g id="patch_205">
    <path d="M 108 64.08 
L 777.6 64.08 
" style="fill: none; stroke: #000000; stroke-width: 0.8; stroke-linejoin: miter; stroke-linecap: square"/>
   </g>
   <g id="patch_206">
    <path d="M 108 8.64 
L 777.6 8.64 
" style="fill: none; stroke: #000000; stroke-width: 0.8; stroke-linejoin: miter; stroke-linecap: square"/>
   </g>
  </g>
 </g>
 <defs>
  <clipPath id="p7cfb0cf8fa">
   <rect x="108" y="8.64" width="669.6" height="55.44"/>
  </clipPath>
 </defs>
</svg>
